<svg xmlns="http://www.w3.org/2000/svg" viewBox="0 0 750 500"><g id="freepik--background-complete--inject-328"><path d="M623.93,115.12H520S530.29,87,546.15,87,567,106.4,567,106.4s10.7-10.56,19.49-10.56,16.44,14,16.44,14S615.33,102.29,623.93,115.12Z" style="fill:#ebebeb"></path><path d="M170.31,116.5H66.36S76.67,88.35,92.53,88.35s20.83,19.43,20.83,19.43,10.7-10.55,19.49-10.55,16.43,14,16.43,14S161.71,103.68,170.31,116.5Z" style="fill:#ebebeb"></path><path d="M544.27,252.71H495.7S506.55,237,515.1,237s11.08,10.48,11.08,10.48,6-4.89,11.63-4S544.27,252.71,544.27,252.71Z" style="fill:#ebebeb;opacity:0.5"></path><path d="M683.64,191.85H635.06s10.86-15.72,19.41-15.72,11.08,10.48,11.08,10.48,6-4.89,11.62-4S683.64,191.85,683.64,191.85Z" style="fill:#ebebeb;opacity:0.5"></path><path d="M233,87H184.47s10.85-15.73,19.4-15.73S215,81.73,215,81.73s6-4.9,11.63-4S233,87,233,87Z" style="fill:#ebebeb;opacity:0.5"></path><path d="M412.81,124.37H364.23s10.86-15.73,19.41-15.73,11.08,10.49,11.08,10.49,6-4.9,11.62-4S412.81,124.37,412.81,124.37Z" style="fill:#ebebeb;opacity:0.5"></path><path d="M417.68,211.76H306.17s15.27-34.1,31.6-36.23,24.15,25.33,24.15,25.33,10.54-9.7,18.82-9.7,14.68,12.78,14.68,12.78S412,195.18,417.68,211.76Z" style="fill:#ebebeb"></path><path d="M167.44,176.89H103.52s11-20.95,22.89-21.26,18.17,15.86,18.17,15.86S163.11,156.62,167.44,176.89Z" style="fill:#ebebeb;opacity:0.5"></path></g><g id="freepik--Beach--inject-328"><path d="M50.92,298.85s44.24-6.32,65.61-7.57,107.76,3.92,110.59,4.43,85.34-2.17,105.82-3,356.92,6.23,356.92,6.23Z" style="fill:#455a64"></path></g><g id="freepik--Trees--inject-328"><path d="M269.75,298.67s9.54-15.45,9.95-26.31c.44-11.82-6.79-24.47-6.79-24.47l.55-.44s10.21,13,9.24,26.68c-.94,13.26-8.65,24.54-8.65,24.54Z" style="fill:#455a64"></path><path d="M273,247.45s6.07-5.45,8.89-5.27,8.52,6.57,8.52,6.79-4.9-3.4-4.9-3.4l2.87,3.71-4.1-3.79,1.32,3.17-2.38-3.53.66,3.36-2.25-3.22,1.13,2.47-1.79-2,.66,1.79-1.55-1.59,1.24,2.29-2.08-2.12.84,1.86-1.23-1.28c-.18-.18.35,1.23.35,1.23l-1.72-1.76.4,1.59-.89-.93.18.93-.88-.93.19.84-1.34-.88.18.44Z" style="fill:#455a64"></path><path d="M273.06,247.4s9.73,1,12.06,2.81,5.74,7.77,5.74,7.77l-4.9-5,2.43,5-3.49-5.34.71,4.41-2.56-5,1,4.37-1.85-5,.6,4.77L280.53,251l.62,3.75-1.9-4.19.71,3.71-2.56-4.86,1,4.15-1.88-4.46.25,2.17-1.44-2.65.51,1.76-1.63-2.31.22,1.43Z" style="fill:#455a64"></path><path d="M273.1,247.45s.53-6.71,2.29-8.25,7.54-3.31,7.54-3.31l-3.43,1.67,3.43-.31-4.67,1,3.75.22-4,.48,3.82,1-4.23-.31,2.25.79-2.83.27,3.27.44-3.84.53h2.69l-3.75,1a16.34,16.34,0,0,1,2.62,0,18.31,18.31,0,0,1-2.93.88l1.61.22-1.83.31,1.37.53-1.77,0,1.37.35-1.5.4.62.26-1.15.55Z" style="fill:#455a64"></path><path d="M273.19,247.37s-3.07,5.09-2.36,8.62,4.67,9.85,4.67,9.85l-2-4,2.78,2.56-3.11-4,3.11,1.81-2.79-2.82,2.52.93-2.29-2.17,2.56,1-2.56-2,2.29.57-3-1.94,2.83.87-2.17-1.31,2,.31-2.53-1.5,2.09.08-2.56-1.63,2.39.62-2.34-1.37,1.94.13s-1.59-1.19-1.68-1.19,1.5.27,1.5.27l-1.34-1.46.72-.13Z" style="fill:#455a64"></path><path d="M273.1,247.45s-2.88-6.59-5.64-8-7.71-1.3-7.71-1.3l3.5.77-3.21.26,5.21.5-5,.44,6.14.68-5.5.41,4.62.8-2.44.61,3.65-.15-3,.63,3.94.44-2.76.67h4.76l-2.76.8,2.94-.06-1.82.47s2.58.56,2.79.56-1.53.12-1.53.12l2.85.58-1,.09Z" style="fill:#455a64"></path><path d="M273.06,247.37s.1-8.17-1.1-10.25a7.31,7.31,0,0,0-3.89-2.86l2.09,1.63-2.09-.28,2.18,1.33-2.35-.18,2.82,1.24-2.29-.27,2.11,1-1.41.06,2,1.15-1.67-.38,1.88,1.32-1.74-.47,2.12,1.47-1.56-.5,2,1.45-1.5-.45,1.53,1-.91-.17,1.21,1-1-.47,1.2,1.23-.73-.26Z" style="fill:#455a64"></path><path d="M273.19,247.6s-9.24-2.9-13.39-1.48-6.12,6.33-6.12,6.33l2.94-3-.94,3.27,2.65-3.91-.74,3.64,1.77-3.67-.62,3.79,2-4-.44,4.15,2-4.38-.53,3.17,2-3.64-1.09,4.29,2.3-4.29-.65,3.73c0-.18,1.65-3.53,1.65-3.53l-.3,2.44,1.27-2.29-.24,1.76,1.47-2.11-.5,2,1.47-2L269,249a19.47,19.47,0,0,1,1.57-1.28C270.68,247.72,273.19,247.6,273.19,247.6Z" style="fill:#455a64"></path><path d="M273.19,247.45s-5.32,1.38-7,3.7-.15,11.09-.15,11.09l0-5.06,1.12,2.41-.91-3.7,1.82,2.59-1.64-4.12,1.94,3L267,253.3l1.8,2.94-1.12-3.94,1.5,3.06-.56-3.74,1.09,2.27-.5-2.92.94,1.72-.29-2.51.57,1.38.28-1.79.06,1,.59-1.92v1l.68-1.3Z" style="fill:#455a64"></path><path d="M268.81,298.67h10.77s-.69-3.83,4.24-5.65a6.62,6.62,0,0,0-5.07,3.23s2.42-6.47,7.65-7.64a13.33,13.33,0,0,0-9.08,7.12s-1.06-5.67,6.7-8.8c0,0-7,.53-9.68,9.27,0,0,1.41-7.59-4.41-10.77,0,0,3.65,3.59,3.12,8.12,0,0-1.59-5.53-8.36-5.3,0,0,6.59,2.12,7.12,6.59,0,0-2.29-3.53-6.06-3.65,0,0,3.35,1.59,3.88,3.18,0,0-2.11-1.94-3.94-.94C265.69,293.43,269.57,294,268.81,298.67Z" style="fill:#455a64"></path><path d="M147.24,298.67s6.9-11.17,7.19-19c.32-8.54-4.91-17.68-4.91-17.68l.41-.32s7.37,9.39,6.67,19.28c-.68,9.58-6.25,17.73-6.25,17.73Z" style="fill:#455a64"></path><path d="M149.6,261.66s4.38-3.94,6.42-3.81,6.16,4.75,6.16,4.91-3.54-2.46-3.54-2.46l2.07,2.68-3-2.74.95,2.3L157,260l.48,2.42-1.63-2.33.82,1.79-1.3-1.46.48,1.3-1.11-1.15.89,1.66-1.5-1.53.61,1.34-.9-.93c-.12-.13.26.89.26.89l-1.25-1.27.29,1.15-.64-.67.13.67-.64-.67.14.6-1-.63.13.31Z" style="fill:#455a64"></path><path d="M149.64,261.63s7,.75,8.71,2,4.15,5.62,4.15,5.62L159,265.65l1.75,3.62-2.52-3.86.51,3.19L156.85,265l.7,3.16-1.33-3.6.43,3.44L155,264.23l.44,2.71-1.37-3,.51,2.68-1.85-3.51.7,3-1.36-3.22.18,1.56-1-1.92.36,1.28-1.18-1.67.16,1Z" style="fill:#455a64"></path><path d="M149.66,261.66s.38-4.85,1.66-6,5.45-2.39,5.45-2.39l-2.48,1.21,2.48-.23-3.38.71,2.71.15-2.92.36,2.76.73-3.06-.22,1.63.57-2,.19,2.36.32-2.78.38H154l-2.71.7a11.9,11.9,0,0,1,1.89,0,12.55,12.55,0,0,1-2.12.64l1.17.16-1.32.22,1,.39-1.27,0,1,.25-1.09.29.45.19-.83.4Z" style="fill:#455a64"></path><path d="M149.73,261.6s-2.22,3.68-1.71,6.23S151.4,275,151.4,275L150,272l2,1.85-2.24-2.9L152,272.3l-2-2,1.82.67-1.66-1.57,1.85.71-1.85-1.44,1.66.42-2.17-1.41,2,.63-1.56-.95,1.47.23-1.83-1.09,1.51.07-1.85-1.18,1.72.44-1.69-1,1.41.1s-1.15-.86-1.22-.86,1.09.19,1.09.19l-1-1.05.52-.1Z" style="fill:#455a64"></path><path d="M149.66,261.66s-2.08-4.76-4.07-5.78-5.57-.94-5.57-.94l2.53.55-2.32.2,3.76.36-3.59.32,4.44.49-4,.29,3.33.58-1.76.44,2.64-.11-2.19.45,2.84.32-2,.49h3.44l-2,.58,2.13,0-1.32.34s1.87.41,2,.41-1.11.08-1.11.08l2.07.43-.71.06Z" style="fill:#455a64"></path><path d="M149.63,261.6s.08-5.9-.79-7.41a5.24,5.24,0,0,0-2.81-2.06l1.51,1.18-1.51-.2,1.57,1-1.7-.13,2,.89-1.65-.19,1.53.7-1,0,1.42.83-1.21-.27,1.36.95-1.25-.34,1.53,1.07-1.13-.37L149,258.3,147.9,258l1.11.72-.66-.13.87.72-.74-.34.87.9-.53-.19Z" style="fill:#455a64"></path><path d="M149.72,261.77s-6.67-2.1-9.67-1.07-4.42,4.58-4.42,4.58l2.13-2.19-.68,2.36,1.91-2.83-.53,2.63,1.27-2.65-.44,2.74,1.46-2.89-.32,3,1.45-3.17-.38,2.29,1.44-2.63-.78,3.1,1.65-3.1s-.48,2.83-.46,2.7,1.19-2.55,1.19-2.55l-.22,1.76.92-1.66-.17,1.28,1.06-1.53-.36,1.44,1.06-1.44-.17.87a13.68,13.68,0,0,1,1.14-.93C147.92,261.85,149.72,261.77,149.72,261.77Z" style="fill:#455a64"></path><path d="M149.72,261.66s-3.84,1-5,2.67-.1,8-.1,8l0-3.66.81,1.74-.66-2.67,1.32,1.87-1.19-3,1.4,2.19-1-2.95,1.3,2.12-.81-2.85,1.09,2.21-.41-2.7.79,1.64-.36-2.1.68,1.24-.21-1.82.41,1,.2-1.3,0,.71.43-1.39v.71l.49-.94Z" style="fill:#455a64"></path><path d="M146.56,298.67h7.78s-.5-2.77,3.07-4.08a4.8,4.8,0,0,0-3.66,2.33s1.74-4.67,5.53-5.52a9.64,9.64,0,0,0-6.57,5.14s-.77-4.09,4.84-6.36c0,0-5.07.39-7,6.7,0,0,1-5.48-3.19-7.78,0,0,2.64,2.59,2.25,5.87a5.77,5.77,0,0,0-6-3.83s4.76,1.53,5.14,4.76a6.06,6.06,0,0,0-4.38-2.63s2.43,1.15,2.81,2.29c0,0-1.53-1.4-2.85-.68C144.31,294.88,147.12,295.27,146.56,298.67Z" style="fill:#455a64"></path><path d="M193,298.79h7.34s-12.49-10.6-14.46-21.05,1.59-15,1.59-15l-.75-.45A23.79,23.79,0,0,0,184.6,278C186.49,286.67,193,298.79,193,298.79Z" style="fill:#455a64"></path><path d="M186.74,263.1s-6.66,2.48-8.78,4.45-2.63,9.94-2.63,9.94l1.42-5.55-.61,4.74,1.72-6.11-.15,6,1.16-7.57.1,6.16.76-6.51.55,5,.25-5.28.51,4,.6-4.89-.15,4.39,1.36-5.05L182.6,270l1.49-3.48-.53,2.62,1.11-3.28-.25,1.82Z" style="fill:#455a64"></path><path d="M186.74,263.1s3.89,2.28,4.44,5.46-.81,9.69-.81,9.69l-.05-5.15L189,276.53l.74-5-1.26,3.69.52-4.92-1.18,2.6.81-4.19-1.26,2,.91-3.43-1.32,2,.76-3.63-1,1.71.51-2.77-.81,1.11.55-1.77Z" style="fill:#455a64"></path><path d="M186.44,263.7s-2.63-4.73-6.82-6.2-8.73.71-8.73.71l4.9-.3-3.28,1.26,4.74-.46-3.63,1.92,5-1.26s-3.18,3.13-3,2.93,3.88-2.58,3.88-2.58l-2.17,3.38,3.38-2.75-2.06,3.35,3.12-2.51-2.52,2.92L183,262.3l-2,2,2.77-1.17-1.21,1.17L185,263.1Z" style="fill:#455a64"></path><path d="M186.74,263.1s.4-7.77-1.36-11.4-7.77-5.45-7.77-5.45l4,3.18-4-1.57,4.58,2.48s-3.73-.66-3.88-.71l4.44,1.72-4.54-.1,4.64,1-4.18.16,4.39,1-4.39.15,5.42,1.11-4.52-.36,4.52,1.37-3.81-.16,4.29,1.47-3.53-.3,3.73,1.16-2.27-.16,2.78,1.17-2.07.1,2.32.65-1.44.26,1.84.75h-2.07l2.07,1.06Z" style="fill:#455a64"></path><path d="M186.74,263.71s3.94-2.17,7.12-1.72,7.26,3.94,7.26,3.94l-2.62-1.31,1.26,2.17-2.17-2.43.71,3.19-1.42-3-.1,2.72-1.46-3v2.82l-1.21-2.82.1,3.28-1.56-3.28-.21,2.32-.75-2.73-.38,1.92-.68-1.72-.56,1.52-.4-1.92-.36,1.53-.7-1.38Z" style="fill:#455a64"></path><path d="M186.78,262.85s-.49-7.06,1-10.09,6.41-6.26,6.41-6.26l-2.9,3.23,3.2-.86-3.9,2h3.65l-4.09.86a18.89,18.89,0,0,0,2.78,1.11c.3-.05-3.28-.45-3.28-.45l2.55,1.81-3.11-.8,2.78,1.48-2.93-.45,2.25,1-2.65-.1s1.84.89,1.92.89l-2.33-.13,2,1.26-2.07-.12,1.82.85-1.84-.05,1.23.46-1.48.35,1.43.15-1.48.38,1.33.28-1.39.2,1,.33-1.29.23.76.45-1,.33.53.22Z" style="fill:#455a64"></path><path d="M186.74,263.71s2.89-6.48,6.11-8.45S203.29,254,203.29,254l-5.86,1,4.35,1.7-5.49-.72,3.75,1.78-5-1.21,3.39,2.05-5-1.48,3.94,2.46-4.85-1.82,3.11,2.84-3.79-2.27,2.92,2.73L191.31,259l1.92,2.65-2.62-1.9,1.61,2.25-2.21-1.6,1.3,1.93-1.87-1.1,1.17,1.65-2-1.12,1.28,1.37s-1.7-.8-1.81-.8.76.8.76.8l-1.18-.25Z" style="fill:#455a64"></path><path d="M188.55,298.79s.46-2.88-3.56-6c0,0,3.11,1.21,4,3.67a6.77,6.77,0,0,0-5-6,7.1,7.1,0,0,1,6.13,4.84s-.3-5.34-4.5-7.68c0,0,4.06,1.54,6.06,7.39,0,0,3-4.28,7.74-4.84,0,0-4.68,1.87-4.74,5.5,0,0,3.43-4.6,7.67-4.23,0,0-4.85,1.3-4.85,4.73a5.49,5.49,0,0,1,5.15-2.76s-5.34,2.12-3.06,5.34Z" style="fill:#455a64"></path><path d="M309.32,298.79h6.25s-10.64-9-12.32-17.94,1.36-12.78,1.36-12.78l-.65-.38A20.32,20.32,0,0,0,302.15,281C303.77,288.46,309.32,298.79,309.32,298.79Z" style="fill:#455a64"></path><path d="M304,268.37s-5.68,2.11-7.48,3.79-2.24,8.47-2.24,8.47l1.21-4.73L295,280l1.46-5.21-.13,5.12,1-6.45.09,5.24.64-5.54.48,4.23.21-4.49.43,3.44.52-4.17-.13,3.74,1.16-4.3-.21,2.71,1.26-3-.45,2.24,1-2.8-.22,1.55Z" style="fill:#455a64"></path><path d="M304,268.37s3.31,1.94,3.79,4.65-.69,8.26-.69,8.26l0-4.39-1.11,2.93.63-4.26-1.07,3.14.44-4.2-1,2.22.69-3.57-1.08,1.68.78-2.93-1.12,1.72.64-3.09L304,272l.43-2.37-.69.95.48-1.51Z" style="fill:#455a64"></path><path d="M303.72,268.89s-2.23-4-5.8-5.29-7.44.6-7.44.6l4.17-.26-2.8,1.08,4-.39-3.1,1.64,4.3-1.08s-2.71,2.67-2.58,2.5,3.31-2.2,3.31-2.2L296,268.37l2.88-2.34-1.76,2.86,2.67-2.15-2.15,2.5,3.18-1.55-1.68,1.67,2.37-1-1,1,2-1Z" style="fill:#455a64"></path><path d="M304,268.37s.35-6.62-1.16-9.72S296.2,254,296.2,254l3.44,2.71-3.44-1.34,3.91,2.11s-3.18-.56-3.31-.6,3.78,1.46,3.78,1.46l-3.87-.08,4,.86-3.57.13,3.74.86-3.74.13,4.62.94-3.85-.3,3.85,1.16-3.24-.13,3.65,1.25-3-.26,3.18,1-1.93-.13,2.37,1-1.77.09,2,.56-1.23.21,1.57.65h-1.76l1.76.9Z" style="fill:#455a64"></path><path d="M304,268.89s3.36-1.85,6.07-1.46,6.19,3.35,6.19,3.35L314,269.67l1.08,1.84-1.85-2.06.6,2.71-1.2-2.58-.09,2.32-1.24-2.54v2.41l-1-2.41.09,2.8-1.33-2.8-.18,2L308.2,269l-.32,1.63-.59-1.46-.47,1.29-.34-1.63-.31,1.3-.6-1.17Z" style="fill:#455a64"></path><path d="M304,268.16s-.42-6,.87-8.6,5.46-5.34,5.46-5.34L307.88,257l2.73-.73L307.28,258h3.11l-3.48.73a15.44,15.44,0,0,0,2.36.94c.26,0-2.79-.38-2.79-.38l2.17,1.54-2.65-.68,2.37,1.27-2.49-.39,1.91.88-2.26-.09s1.57.76,1.64.76l-2-.11,1.72,1.07-1.77-.1,1.55.73-1.57-.05,1.06.39-1.27.3,1.22.13-1.27.32,1.14.24-1.18.17.84.28-1.1.2.65.38-.84.28.45.2Z" style="fill:#455a64"></path><path d="M304,268.89s2.47-5.53,5.21-7.2,8.9-1.07,8.9-1.07l-5,.87,3.71,1.45-4.68-.61,3.2,1.52-4.28-1,2.89,1.74-4.23-1.26,3.36,2.1-4.13-1.55,2.64,2.42-3.22-1.94,2.48,2.32-2.95-1.8,1.63,2.26-2.23-1.62,1.37,1.91L306.77,266l1.11,1.65-1.6-.94,1,1.41-1.67-1,1.09,1.17s-1.45-.68-1.55-.68.65.68.65.68l-1-.21Z" style="fill:#455a64"></path><path d="M305.53,298.79s.38-2.46-3-5.1c0,0,2.65,1,3.39,3.13a5.77,5.77,0,0,0-4.26-5.1,6.06,6.06,0,0,1,5.23,4.13s-.26-4.55-3.84-6.55c0,0,3.46,1.32,5.16,6.3,0,0,2.54-3.64,6.6-4.13,0,0-4,1.6-4,4.69,0,0,2.93-3.91,6.54-3.6,0,0-4.13,1.11-4.13,4a4.68,4.68,0,0,1,4.39-2.35s-4.55,1.8-2.62,4.55Z" style="fill:#455a64"></path><path d="M83.62,298.79h6.76S78.88,289,77.07,279.42s1.47-13.79,1.47-13.79l-.7-.42a22,22,0,0,0-2,14.42C77.63,287.64,83.62,298.79,83.62,298.79Z" style="fill:#455a64"></path><path d="M77.86,266s-6.13,2.28-8.08,4.09-2.41,9.15-2.41,9.15l1.3-5.11-.56,4.36,1.58-5.61-.14,5.52,1.07-7,.09,5.66.7-6,.51,4.57.23-4.85.46,3.72.56-4.51L73,274l1.26-4.64-.24,2.92,1.37-3.2-.48,2.41,1-3-.23,1.67Z" style="fill:#455a64"></path><path d="M77.86,266S81.44,268,82,271s-.74,8.91-.74,8.91l0-4.73L80,278.31l.68-4.6-1.16,3.39.48-4.53L78.88,275l.75-3.85-1.16,1.81.83-3.16-1.21,1.86.7-3.35-.93,1.58.47-2.55-.75,1,.51-1.63Z" style="fill:#455a64"></path><path d="M77.58,266.5s-2.41-4.36-6.27-5.7-8,.65-8,.65l4.5-.28-3,1.16,4.36-.42-3.34,1.77,4.64-1.16s-2.92,2.87-2.78,2.69,3.57-2.37,3.57-2.37l-2,3.11,3.12-2.53-1.91,3.08,2.88-2.31L71,266.88l3.44-1.67L72.61,267,75.17,266,74.05,267,76.24,266Z" style="fill:#455a64"></path><path d="M77.86,266s.37-7.15-1.25-10.49-7.15-5-7.15-5l3.71,2.93-3.71-1.44,4.22,2.27s-3.43-.6-3.57-.65,4.08,1.58,4.08,1.58L70,255l4.28.93-3.86.14,4,.93-4,.13,5,1-4.15-.33,4.15,1.25-3.5-.13,4,1.34-3.26-.28,3.44,1.07L74,261l2.56,1.07-1.91.09,2.14.61-1.33.23,1.7.69h-1.9l1.9,1Z" style="fill:#455a64"></path><path d="M77.86,266.51s3.62-2,6.55-1.58,6.69,3.62,6.69,3.62l-2.42-1.21,1.16,2-2-2.23L88.5,270l-1.3-2.79-.1,2.51L85.76,267v2.6L84.64,267l.1,3-1.44-3-.19,2.14-.7-2.51-.34,1.76-.63-1.58-.51,1.4-.37-1.77-.33,1.41-.65-1.27Z" style="fill:#455a64"></path><path d="M77.9,265.72s-.46-6.5.94-9.29,5.9-5.76,5.9-5.76l-2.67,3,2.94-.79-3.59,1.85h3.36L81,255.5a17.1,17.1,0,0,0,2.55,1c.28,0-3-.41-3-.41l2.34,1.67L80.05,257l2.55,1.37L79.91,258l2.06.95-2.44-.09s1.7.81,1.77.81l-2.14-.12L81,260.7l-1.9-.11,1.67.79-1.7-.05,1.14.42-1.37.32,1.32.14-1.37.35,1.24.26-1.28.18.9.3-1.18.21.7.42-.91.3.49.21Z" style="fill:#455a64"></path><path d="M77.86,266.51s2.66-6,5.62-7.78,9.62-1.15,9.62-1.15l-5.4.94,4,1.57-5-.66,3.45,1.63L85.48,260l3.12,1.88L84,260.47l3.62,2.27-4.46-1.68,2.86,2.61-3.48-2.08,2.68,2.5-3.19-1.95,1.76,2.44-2.41-1.74,1.48,2.06-2-1.47,1.2,1.78-1.72-1,1.07,1.52-1.8-1L80.8,266s-1.57-.74-1.67-.74.7.74.7.74l-1.09-.23Z" style="fill:#455a64"></path><path d="M79.53,298.79s.42-2.65-3.28-5.51c0,0,2.86,1.12,3.66,3.38a6.21,6.21,0,0,0-4.6-5.5A6.54,6.54,0,0,1,81,295.62s-.28-4.92-4.15-7.07c0,0,3.74,1.42,5.58,6.8,0,0,2.73-3.94,7.12-4.46,0,0-4.3,1.73-4.36,5.06,0,0,3.16-4.22,7.06-3.89,0,0-4.46,1.2-4.46,4.36a5.06,5.06,0,0,1,4.74-2.55s-4.92,1.95-2.83,4.92Z" style="fill:#455a64"></path></g><g id="freepik--Sun--inject-328"><circle cx="479.31" cy="149.04" r="32.74" transform="translate(2.54 306.04) rotate(-35.5)" style="fill:#F68A1E;opacity:0.5"></circle><circle cx="479.31" cy="149.04" r="23.59" transform="translate(-20.81 191.83) rotate(-22.16)" style="fill:#F68A1E"></circle></g><g id="freepik--water-scooter--inject-328"><path d="M431.58,258.05s-8-9.67-9.1-10.09-21,.38-24.11,1.51-18.16,17-18.22,19,3.92,15.89,3.92,15.89Z" style="fill:#263238"></path><path d="M658.83,334.64c-21.32,6.89-90.2,17.95-130.1,20.45L122.81,380.57c-5.85.37-36,17.27-38.77,14.14-5.32-6.08,30.49-24.12,36.4-26.28s27.08-11.15,31.13-14.61,38.79-34.48,44.31-37.32c2.9-1.49,70-4.34,85.2-5.42,36.62-2.61,72.66-8.14,77.26-10.12,9.7-4.17,57.31-39.91,65.33-42.55s45.63,6.39,54.09,5.15,7.56-15.79,7.56-15.79,87.53,26,100.23,29.78,42.5,28.32,42.5,28.32,6.66,1.8,11.71,2.91,27.52,18.57,26.72,20S667.73,331.77,658.83,334.64Z" style="fill:#F68A1E"></path><path d="M590.84,281c-8.22-1.13-16.42-2.37-24.62-3.62l-24.57-3.89-24.53-4.11-12.26-2.14L492.63,265l12.31,1.76,12.3,1.86,24.57,3.89,24.54,4.11C574.52,278,582.69,279.42,590.84,281Z" style="opacity:0.1"></path><path d="M546.47,293.09l-36.3-3.5c-12.1-1.15-24.19-2.35-36.31-3.23-3-.22-6.05-.45-9.07-.54-.76-.05-1.51,0-2.25,0l-1.12,0a9.73,9.73,0,0,0-1.06.17,30.7,30.7,0,0,0-4.27,1.37c-5.62,2.21-11,5-16.49,7.66s-10.79,5.58-16.13,8.47-10.68,5.8-16,8.74c10.43-6.24,21-12.24,31.78-17.89,5.39-2.82,10.84-5.54,16.51-7.82a30.6,30.6,0,0,1,4.4-1.44,11.62,11.62,0,0,1,1.18-.2l1.16,0c.78,0,1.55,0,2.31,0,3.06.08,6.09.29,9.13.5,12.12,1,24.22,2.16,36.31,3.47l18.12,2C534.4,291.6,540.44,292.31,546.47,293.09Z" style="opacity:0.1"></path><path d="M658.83,334.64s-65.25,66.55-97.17,68.56L136.58,429.87c-16.49,1-52.94-35.09-51.38-35.72s37.61-13.58,37.61-13.58l405.92-25.48C582.46,351.72,658.83,334.64,658.83,334.64Z" style="fill:#263238"></path><path d="M84,394.71c2.73,3.12,32.4-8.43,40.24-10.49l404.45-29.13c39.9-2.5,108.78-13.57,130.1-20.45,8.91-2.87,6.85-4.35,7.65-5.81s-21.66-18.94-26.72-20.05-11.71-2.91-11.71-2.91c-32.71-1.42-140.37-9.09-157.39-8s-152.58,53.91-165.8,55.81-148.32-28-160.59-26.45c-3.3,4.9-3.77,26.58-5.43,28-4.05,3.45-12.48,11.07-18.4,13.22S78.71,388.64,84,394.71Z" style="fill:#455a64"></path><path d="M395.11,322.28c6.68-6-32.6-19.71-40.25-20.47-4-.39-70.3,9.92-92.37,11-34.05,1.63-83.54.45-87.13.3-7.49-.32-41.85-3.15-46.73-1.42s-4.91,8.08-1.16,11,149.6,33.41,177.39,31S389.22,327.57,395.11,322.28Z" style="fill:#a6a6a6"></path><path d="M395.11,322.28c6.68-6-32.6-19.71-40.25-20.47-3.77-.37-71.79,6.38-85.69,8.15-14.75,1.88-85.51,1.25-89.3,1.09-7.5-.32,3.17,14.58,8,16.51,11.47,4.59,89.22,28.56,117,26.1S389.22,327.57,395.11,322.28Z" style="fill:#263238"></path><polygon points="240.5 363.75 216.91 365.23 164.73 347.85 240.5 363.75" style="fill:#F68A1E"></polygon><path d="M658.08,322.62l-71-.09c-23.68,0-47.36-.06-71,.24q-8.88.11-17.74.35c-2.95.1-5.9.17-8.83.34-.74,0-1.47.08-2.19.14s-1.47.1-2.14.2c-.35.05-.68.08-1,.14l-1.07.21-2.15.45c-11.54,2.52-23.07,5.24-34.6,7.91l-69.17,16.18-34.64,7.89c-11.57,2.58-23.08,5.23-34.76,7.53a41.89,41.89,0,0,1-4.51.68l-4.45.38-8.87.65L272.14,367q-17.73,1.19-35.46,2.19l-70.91,4.18c-11.82.67-23.64,1.34-35.45,2.11-2.95.2-5.91.39-8.85.66a13.44,13.44,0,0,0-4.18,1.15c-1.37.53-2.72,1.14-4.07,1.74-5.38,2.45-10.67,5.12-15.92,7.85,5.18-2.87,10.4-5.67,15.73-8.26,1.34-.64,2.68-1.27,4.06-1.84a14.39,14.39,0,0,1,4.31-1.26c3-.33,5.91-.58,8.86-.83,11.8-1,23.61-1.89,35.41-2.79l70.87-5L272,364.42l17.7-1.26,8.85-.68,4.39-.39a42.44,42.44,0,0,0,4.27-.66c11.55-2.32,23.1-5,34.63-7.64l34.6-8,69.23-15.91c11.55-2.63,23.08-5.3,34.68-7.79l2.19-.45a22.6,22.6,0,0,1,2.28-.37c.79-.11,1.52-.14,2.28-.2s1.5-.11,2.24-.14c3-.15,5.94-.24,8.91-.29,5.93-.1,11.86-.14,17.78-.15,23.69,0,47.37.26,71,.6S634.41,321.94,658.08,322.62Z" style="fill:#37474f"></path><polygon points="400 380.44 383.53 373.29 502.21 363.7 400 380.44" style="fill:#F68A1E"></polygon><polygon points="560.69 270.14 556.51 264.42 499.33 243.13 499.89 252.09 560.69 270.14" style="fill:#455a64"></polygon><path d="M399.33,257.82a4.71,4.71,0,1,0,4.41-5A4.71,4.71,0,0,0,399.33,257.82Z" style="fill:#455a64"></path></g><g id="freepik--Sea--inject-328"><path d="M707.69,423.22c-82.06,0-109.19-12.62-125.85-15.72s-29.51-6.18-51.49-6.52-49.77,8.7-65,7.87c-12.46-.69-62.08-12.32-78.5-12s-31.14,4.78-28.41,7.35,21.9,3.26,16.09,7.36-24.64,3.43-41.41,1.71-39.41,5.14-50.84,5.14-40.87-17.8-55.58-23.27S189,389.62,192,393.25s22.79,7.42,26.56,11.34,2.39,12.81-8.56,11.78-31-21.46-58.28-33.31-53.53-11.65-54.6-7.65,26.65,7.77,32.47,12.9,18.82,19.51,14.37,21.56-18.64-10.61-30.88-12-11.21,2.05-3,4.79,21.89,18.82,15,19.84-33.63-14.6-47.66-16.65S59.88,407.59,64,410s29.88,6.84,26.33,18.93c-1.65,5.63-42.54,2.51-48,2.51" style="fill:#fff"></path><path d="M707.69,423.22A580,580,0,0,1,643.13,420a316.31,316.31,0,0,1-31.93-5.16c-5.28-1.1-10.5-2.44-15.72-3.79s-10.4-2.8-15.71-3.72-10.58-2-15.89-3-10.64-1.68-16-2.19c-10.71-.95-21.52-1.49-32.2-.07s-21.24,3.53-31.88,5.32a107.14,107.14,0,0,1-16.11,1.76,53.32,53.32,0,0,1-8.09-.7c-2.67-.39-5.33-.83-8-1.29l-31.81-5.82c-5.3-.94-10.61-1.83-15.94-2.61a129.2,129.2,0,0,0-16-1.55,96.68,96.68,0,0,0-16,1.46,64.87,64.87,0,0,0-7.82,1.85,23.19,23.19,0,0,0-3.69,1.45,5.43,5.43,0,0,0-1.52,1.07c-.39.46-.28.71.27,1.07a14.13,14.13,0,0,0,3.68,1.26c1.3.32,2.62.58,3.94.85s2.64.55,4,.86a20.72,20.72,0,0,1,3.93,1.28,4.8,4.8,0,0,1,.93.61,1.52,1.52,0,0,1,.57,1.2,1.85,1.85,0,0,1-.57,1.13,4.57,4.57,0,0,1-.86.69,13.23,13.23,0,0,1-3.83,1.61,43.45,43.45,0,0,1-8.07,1.2c-10.81.68-21.63-.38-32.32-1.31a94.83,94.83,0,0,0-16.05.87c-5.33.68-10.63,1.61-15.95,2.52-2.65.45-5.32.9-8,1.27a62.64,62.64,0,0,1-8.12.71,28.88,28.88,0,0,1-8-1.63c-2.59-.84-5.1-1.84-7.59-2.89-9.95-4.25-19.49-9.3-29.2-13.95-2.42-1.16-4.86-2.3-7.33-3.36a57.92,57.92,0,0,0-7.53-2.74,84.39,84.39,0,0,0-15.8-2.81,69.34,69.34,0,0,0-8-.27,28.85,28.85,0,0,0-4,.34,9,9,0,0,0-1.86.46,2.19,2.19,0,0,0-.7.4c-.14.17-.12.17,0,.37a4.64,4.64,0,0,0,1.36,1.14,17.86,17.86,0,0,0,1.74.9c1.21.55,2.46,1,3.72,1.48,2.52.91,5.09,1.72,7.65,2.57s5.13,1.69,7.64,2.75a19.7,19.7,0,0,1,3.66,1.92,6.62,6.62,0,0,1,2.47,3.46,7.52,7.52,0,0,1,.14,4.23,6.91,6.91,0,0,1-2.28,3.58,8.82,8.82,0,0,1-3.83,1.76,15.18,15.18,0,0,1-4.14.23,20.89,20.89,0,0,1-7.79-2.57c-2.41-1.26-4.72-2.68-7-4.15-4.52-2.95-8.92-6.06-13.38-9.08a198.7,198.7,0,0,0-27.8-16.32,127.22,127.22,0,0,0-30.63-9.78,93.55,93.55,0,0,0-16-1.63,32.74,32.74,0,0,0-7.93.76,7.05,7.05,0,0,0-1.76.71c-.53.33-.84.78-.57,1.19a3.75,3.75,0,0,0,1.4,1.14,15.57,15.57,0,0,0,1.8.84,79.33,79.33,0,0,0,7.65,2.47l7.78,2.18c2.6.74,5.19,1.51,7.73,2.44a34.47,34.47,0,0,1,3.75,1.62,12,12,0,0,1,1.76,1.1c.57.44,1,.9,1.54,1.36a92.48,92.48,0,0,1,10.78,12.1,31.4,31.4,0,0,1,2.2,3.44,13.83,13.83,0,0,1,.87,1.87,4.81,4.81,0,0,1,.35,2.12,1.86,1.86,0,0,1-.48,1.09,2.22,2.22,0,0,1-1,.57,4.85,4.85,0,0,1-2.15-.06,18.87,18.87,0,0,1-3.84-1.45c-4.87-2.38-9.44-5.25-14.34-7.45a41.62,41.62,0,0,0-7.55-2.68,26.17,26.17,0,0,0-4-.61,35.69,35.69,0,0,0-4-.18,14.16,14.16,0,0,0-2,.15,2.69,2.69,0,0,0-1.62.67c-.25.32.26.91.75,1.28a11.29,11.29,0,0,0,1.67,1,29.49,29.49,0,0,0,3.72,1.5,17.39,17.39,0,0,1,3.64,1.87,39.42,39.42,0,0,1,6.27,5.18,38,38,0,0,1,5.14,6.29,12.58,12.58,0,0,1,1.71,3.74,3.07,3.07,0,0,1-.19,2.16,2.4,2.4,0,0,1-1.9,1.06,12.14,12.14,0,0,1-4.09-.52c-1.31-.35-2.59-.78-3.87-1.24-5.07-1.86-10-4.08-14.93-6.22s-9.9-4.27-15-6.08a65.7,65.7,0,0,0-7.72-2.3,51,51,0,0,0-8-.95,29.8,29.8,0,0,0-4,.1,10.63,10.63,0,0,0-3.83,1A1.82,1.82,0,0,0,62.54,408a2.1,2.1,0,0,0,1,1.52,14.07,14.07,0,0,0,3.65,1.59c5.11,1.67,10.31,3.21,15.12,5.7a20.75,20.75,0,0,1,6.47,4.82,8.28,8.28,0,0,1,1.82,3.62,7.09,7.09,0,0,1-.33,4,3.36,3.36,0,0,1-1.64,1.22,11.73,11.73,0,0,1-1.93.62,31.64,31.64,0,0,1-4,.67c-2.68.31-5.38.44-8.07.51-10.79.26-21.56-.43-32.32-.85,10.77.39,21.54,1,32.32.74,2.69-.08,5.38-.22,8.05-.53a33.42,33.42,0,0,0,4-.68,11.4,11.4,0,0,0,1.9-.62,3.32,3.32,0,0,0,1.56-1.16,6.85,6.85,0,0,0,.3-3.91,8.17,8.17,0,0,0-1.79-3.53A20.64,20.64,0,0,0,82.21,417c-4.8-2.46-10-4-15.12-5.64-.64-.21-1.28-.42-1.91-.67a7.15,7.15,0,0,1-1.82-.94A2.38,2.38,0,0,1,62.24,408a2.1,2.1,0,0,1,1.24-1.66,10.75,10.75,0,0,1,3.94-1.06,30.6,30.6,0,0,1,4.06-.12,50.76,50.76,0,0,1,8.06.92,67.35,67.35,0,0,1,7.78,2.28c5.09,1.8,10.05,3.92,15,6.05s9.88,4.33,14.93,6.17c1.26.45,2.53.88,3.83,1.22a11.56,11.56,0,0,0,3.88.51,1.88,1.88,0,0,0,1.51-.81,2.56,2.56,0,0,0,.13-1.78,12.19,12.19,0,0,0-1.64-3.58,37.11,37.11,0,0,0-5.08-6.19,38.7,38.7,0,0,0-6.18-5.1,17.84,17.84,0,0,0-3.53-1.81,29.77,29.77,0,0,1-3.78-1.51,10.54,10.54,0,0,1-1.77-1.09,3.75,3.75,0,0,1-.77-.77,1.14,1.14,0,0,1-.11-1.26,2,2,0,0,1,1-.67,5.52,5.52,0,0,1,1-.25,15.89,15.89,0,0,1,2.06-.17,39.14,39.14,0,0,1,4.06.18,27.78,27.78,0,0,1,4,.62,42.26,42.26,0,0,1,7.66,2.71c4.94,2.21,9.54,5.09,14.35,7.44a19.4,19.4,0,0,0,3.71,1.39,4.06,4.06,0,0,0,1.86.06,1.25,1.25,0,0,0,1-1.12,4.27,4.27,0,0,0-.32-1.83,13.78,13.78,0,0,0-.83-1.79,31.64,31.64,0,0,0-2.17-3.37,92.23,92.23,0,0,0-10.71-12c-1.83-2-4.32-3-6.83-3.93s-5.1-1.68-7.68-2.42l-7.79-2.17c-2.59-.74-5.19-1.48-7.73-2.48a17.53,17.53,0,0,1-1.87-.87,4.52,4.52,0,0,1-1.68-1.4,1.36,1.36,0,0,1,0-1.31,2.35,2.35,0,0,1,.83-.83,7.26,7.26,0,0,1,2-.81,33.22,33.22,0,0,1,8.11-.79,93.85,93.85,0,0,1,16.14,1.62A128.37,128.37,0,0,1,154.75,384a200.92,200.92,0,0,1,27.93,16.35c4.47,3,8.88,6.13,13.39,9.06,2.25,1.45,4.54,2.86,6.91,4.09a20,20,0,0,0,7.46,2.47c2.59.19,5.37-.17,7.35-1.8a6,6,0,0,0,2-3.12,6.62,6.62,0,0,0-.13-3.74,5.8,5.8,0,0,0-2.14-3,19.51,19.51,0,0,0-3.49-1.81c-2.46-1-5-1.87-7.57-2.71s-5.13-1.66-7.68-2.57c-1.28-.46-2.55-.94-3.79-1.5a20.31,20.31,0,0,1-1.85-1,5.21,5.21,0,0,1-1.68-1.47,1.24,1.24,0,0,1-.18-.77,1.18,1.18,0,0,1,.36-.7,2.89,2.89,0,0,1,1-.63,10.45,10.45,0,0,1,2.05-.52,31.53,31.53,0,0,1,4.09-.36,73.45,73.45,0,0,1,8.13.26,86,86,0,0,1,16,2.83,60.13,60.13,0,0,1,7.65,2.77c2.49,1.07,4.94,2.21,7.37,3.37,9.73,4.67,19.26,9.73,29.14,14,2.47,1.05,5,2.05,7.51,2.87a28.1,28.1,0,0,0,7.75,1.6,61.55,61.55,0,0,0,8-.69c2.66-.37,5.31-.81,8-1.26,5.31-.9,10.63-1.82,16-2.49a94.26,94.26,0,0,1,16.2-.86c10.76.95,21.49,2,32.23,1.35a42.54,42.54,0,0,0,7.9-1.17,12.33,12.33,0,0,0,3.6-1.49c.52-.32,1.05-.82,1.07-1.19s-.51-.77-1.06-1a18.92,18.92,0,0,0-3.75-1.22c-1.3-.32-2.61-.59-3.93-.86s-2.64-.54-4-.86a15.21,15.21,0,0,1-3.93-1.37,1.72,1.72,0,0,1-.82-1,1.44,1.44,0,0,1,.38-1.28,6.1,6.1,0,0,1,1.76-1.26,24.81,24.81,0,0,1,3.82-1.5,65.73,65.73,0,0,1,7.91-1.85,97.18,97.18,0,0,1,16.15-1.46A129.89,129.89,0,0,1,404,398.08c5.33.79,10.65,1.69,16,2.64l31.8,5.85c2.65.46,5.3.91,8,1.3a51.22,51.22,0,0,0,8,.7,106.76,106.76,0,0,0,16-1.72c10.62-1.78,21.18-4,31.91-5.28,10.73-1.42,21.6-.86,32.33.11s21.35,3.16,31.92,5.2c5.32.94,10.53,2.41,15.73,3.79s10.42,2.73,15.69,3.85a317.6,317.6,0,0,0,31.88,5.27A579.46,579.46,0,0,0,707.69,423.22Z" style="fill:#263238"></path><path d="M87,362.48c-1.94,1.93,6.84,4.11,9.92,2.39S90.45,359.06,87,362.48Z" style="fill:#fff"></path><path d="M87,362.48a.76.76,0,0,0-.25.69,1.13,1.13,0,0,0,.42.61,4.57,4.57,0,0,0,1.35.7,13.33,13.33,0,0,0,3,.59,14.3,14.3,0,0,0,3,0,8.11,8.11,0,0,0,1.42-.28,2.37,2.37,0,0,0,1-.56c.07-.09.08-.11,0-.25a1.35,1.35,0,0,0-.33-.45,5.35,5.35,0,0,0-1.13-.81,11,11,0,0,0-2.77-1.1,9.17,9.17,0,0,0-3-.28A4.49,4.49,0,0,0,87,362.48Zm0,0a5,5,0,0,1,2.75-1.31,9.83,9.83,0,0,1,3.11-.07,10.83,10.83,0,0,1,3.07.82,5.59,5.59,0,0,1,1.41.88,2.18,2.18,0,0,1,.57.79,1.19,1.19,0,0,1-.13,1.2,3,3,0,0,1-1.6.89,7.5,7.5,0,0,1-1.62.21,13.58,13.58,0,0,1-3.13-.33,14.4,14.4,0,0,1-3-.95,5.23,5.23,0,0,1-1.32-.8,1.2,1.2,0,0,1-.42-.64A.8.8,0,0,1,87,362.48Z" style="fill:#263238"></path><path d="M487.65,395.48c-1.93,1.94,6.85,4.11,9.93,2.4S491.08,392.06,487.65,395.48Z" style="fill:#fff"></path><path d="M487.65,395.48a.82.82,0,0,0-.25.69,1.15,1.15,0,0,0,.43.61,4.29,4.29,0,0,0,1.34.7,13.31,13.31,0,0,0,3,.59,14.31,14.31,0,0,0,3,0,7,7,0,0,0,1.41-.28,2.32,2.32,0,0,0,1.06-.55c.06-.1.07-.12,0-.26a1.3,1.3,0,0,0-.32-.45,5.17,5.17,0,0,0-1.14-.81,11,11,0,0,0-2.77-1.09,9.17,9.17,0,0,0-3-.29A4.55,4.55,0,0,0,487.65,395.48Zm0,0a5.2,5.2,0,0,1,2.75-1.31,9.89,9.89,0,0,1,3.12-.07,11.11,11.11,0,0,1,3.06.82,5.21,5.21,0,0,1,1.41.89,2.18,2.18,0,0,1,.58.78,1.24,1.24,0,0,1-.13,1.2,3,3,0,0,1-1.61.89,8.2,8.2,0,0,1-1.61.22,14.87,14.87,0,0,1-3.14-.33,15.28,15.28,0,0,1-3-1,5.23,5.23,0,0,1-1.32-.8,1.2,1.2,0,0,1-.42-.64A.8.8,0,0,1,487.65,395.48Z" style="fill:#263238"></path><path d="M97.5,395c-.8,1.94,2.81,4.11,4.08,2.4S98.9,391.59,97.5,395Z" style="fill:#fff"></path><path d="M97.5,395a1.61,1.61,0,0,0,.29,1.58,2.93,2.93,0,0,0,1.33.9,2.52,2.52,0,0,0,1.45.08,1,1,0,0,0,.73-.79,3.26,3.26,0,0,0-1.22-2.51,1.63,1.63,0,0,0-1.46-.41A2,2,0,0,0,97.5,395Zm0,0a2.36,2.36,0,0,1,1.07-1.28,2.08,2.08,0,0,1,1.77.12,3.61,3.61,0,0,1,1.41,1.19,2.64,2.64,0,0,1,.53,1.92,1.82,1.82,0,0,1-1.54,1.45,2.79,2.79,0,0,1-1.84-.48,3.7,3.7,0,0,1-1.22-1.27A1.86,1.86,0,0,1,97.5,395Z" style="fill:#263238"></path><path d="M345.67,405.77c-.79,1.93,2.82,4.1,4.09,2.39S347.08,402.34,345.67,405.77Z" style="fill:#fff"></path><path d="M345.67,405.77a1.6,1.6,0,0,0,.3,1.57,2.93,2.93,0,0,0,1.33.9,2.43,2.43,0,0,0,1.45.08,1,1,0,0,0,.73-.79,3.26,3.26,0,0,0-1.22-2.51,1.66,1.66,0,0,0-1.46-.41A2,2,0,0,0,345.67,405.77Zm0,0a2.41,2.41,0,0,1,1.08-1.29,2.08,2.08,0,0,1,1.77.12,3.68,3.68,0,0,1,1.41,1.19,2.64,2.64,0,0,1,.53,1.92,1.82,1.82,0,0,1-1.54,1.45,2.79,2.79,0,0,1-1.84-.48,3.61,3.61,0,0,1-1.22-1.27A1.84,1.84,0,0,1,345.67,405.77Z" style="fill:#263238"></path><path d="M188,381.92c-1.72,1.48,2.77,5.18,5.1,4.13S191.08,379.31,188,381.92Z" style="fill:#fff"></path><path d="M188,381.92a1.13,1.13,0,0,0-.35,1,2.15,2.15,0,0,0,.44.94,5.23,5.23,0,0,0,1.63,1.3,5.31,5.31,0,0,0,1.91.63c.16,0,.31,0,.47,0s.29,0,.44,0l.38-.13a.6.6,0,0,0,.22-.19c.23-.27.11-1-.17-1.53a5.07,5.07,0,0,0-1.18-1.61,3.59,3.59,0,0,0-1.82-.94A2.47,2.47,0,0,0,188,381.92Zm0,0a2.87,2.87,0,0,1,2-.74,4,4,0,0,1,2.1.68,5.4,5.4,0,0,1,1.64,1.59,3.55,3.55,0,0,1,.47,1.13A1.83,1.83,0,0,1,194,386a2.39,2.39,0,0,1-2.48.6,5.56,5.56,0,0,1-2-1A5.88,5.88,0,0,1,188,383.9a2.37,2.37,0,0,1-.37-1A1.13,1.13,0,0,1,188,381.92Z" style="fill:#263238"></path><path d="M89.76,376.17c2.56-.71-.37-4.42-3.05-2.56S87.21,376.88,89.76,376.17Z" style="fill:#fff"></path><path d="M89.76,376.17l.38-.16a2.67,2.67,0,0,0,.32-.24.92.92,0,0,0,.2-.74,1.74,1.74,0,0,0-.91-1.17,2.52,2.52,0,0,0-2.66.1,2.56,2.56,0,0,0-.93.88c-.18.25.06.64.49.92A4,4,0,0,0,89.76,376.17Zm0,0a6.26,6.26,0,0,1-3.33.05,1.91,1.91,0,0,1-.82-.51,1.2,1.2,0,0,1-.28-1.1,2.66,2.66,0,0,1,1.23-1.49,2.78,2.78,0,0,1,3.49.35A2.21,2.21,0,0,1,90.8,375a1.09,1.09,0,0,1-.31.77,2.62,2.62,0,0,1-.34.24Z" style="fill:#263238"></path><path d="M110.61,394.3c2.56-.71-.37-4.42-3-2.56S108.05,395,110.61,394.3Z" style="fill:#fff"></path><path d="M110.61,394.3l.38-.16c.11-.07.21-.16.32-.24a.92.92,0,0,0,.2-.74,1.74,1.74,0,0,0-.91-1.17,2.52,2.52,0,0,0-2.66.1,2.56,2.56,0,0,0-.93.88c-.18.25,0,.64.49.92A4,4,0,0,0,110.61,394.3Zm0,0a6.26,6.26,0,0,1-3.33.05,1.91,1.91,0,0,1-.82-.51,1.17,1.17,0,0,1-.28-1.1,2.66,2.66,0,0,1,1.23-1.49,2.78,2.78,0,0,1,3.49.35,2.21,2.21,0,0,1,.75,1.55,1.09,1.09,0,0,1-.31.77,3.53,3.53,0,0,1-.34.24Z" style="fill:#263238"></path><path d="M61.68,418c2.56-.71-.37-4.42-3-2.57S59.13,418.66,61.68,418Z" style="fill:#fff"></path><path d="M61.68,418l.38-.16a2.72,2.72,0,0,0,.32-.25.92.92,0,0,0,.2-.74,1.76,1.76,0,0,0-.91-1.17,2.54,2.54,0,0,0-2.66.11,2.48,2.48,0,0,0-.93.88c-.18.25.06.64.49.92A4.07,4.07,0,0,0,61.68,418Zm0,0a6.26,6.26,0,0,1-3.33,0,1.82,1.82,0,0,1-.82-.51,1.19,1.19,0,0,1-.28-1.09,2.71,2.71,0,0,1,1.23-1.5,2.91,2.91,0,0,1,1.84-.44,2.82,2.82,0,0,1,1.65.79,2.25,2.25,0,0,1,.75,1.56,1.11,1.11,0,0,1-.31.77,2.54,2.54,0,0,1-.34.23Z" style="fill:#263238"></path><path d="M74.48,400.54c1.36-.37-.19-2.34-1.62-1.36S73.13,400.92,74.48,400.54Z" style="fill:#fff"></path><path d="M74.48,400.54a.87.87,0,0,0,.37-.22.44.44,0,0,0,.08-.38.81.81,0,0,0-.52-.53,1.31,1.31,0,0,0-1.22.16,3.13,3.13,0,0,0-.43.32s-.06,0-.05.09.08.16.17.24A1.83,1.83,0,0,0,74.48,400.54Zm0,0a4,4,0,0,1-1.82.14,1.18,1.18,0,0,1-.51-.28.81.81,0,0,1-.22-.74,1.61,1.61,0,0,1,.73-.94,1.64,1.64,0,0,1,1.11-.23,1.6,1.6,0,0,1,.94.52,1.35,1.35,0,0,1,.36.92A.67.67,0,0,1,74.48,400.54Z" style="fill:#263238"></path><path d="M103.07,391.39c1.36-.38-.2-2.35-1.62-1.36S101.71,391.77,103.07,391.39Z" style="fill:#fff"></path><path d="M103.07,391.39a1,1,0,0,0,.37-.22.45.45,0,0,0,.08-.38.86.86,0,0,0-.53-.54,1.29,1.29,0,0,0-1.21.17,2.12,2.12,0,0,0-.43.32s-.07,0-.06.08a.54.54,0,0,0,.18.25A1.82,1.82,0,0,0,103.07,391.39Zm0,0a4,4,0,0,1-1.82.13,1,1,0,0,1-.52-.28.79.79,0,0,1-.21-.73,1.59,1.59,0,0,1,.72-.94,1.69,1.69,0,0,1,1.12-.24,1.61,1.61,0,0,1,.94.53,1.35,1.35,0,0,1,.36.92A.68.68,0,0,1,103.07,391.39Z" style="fill:#263238"></path><path d="M348.6,400.38C350,400,348.4,398,347,399S347.24,400.76,348.6,400.38Z" style="fill:#fff"></path><path d="M348.6,400.38a1,1,0,0,0,.37-.22.44.44,0,0,0,.08-.38.89.89,0,0,0-.53-.54,1.29,1.29,0,0,0-1.21.17,2.59,2.59,0,0,0-.43.32s-.07,0-.06.08a.54.54,0,0,0,.18.25A1.82,1.82,0,0,0,348.6,400.38Zm0,0a3.9,3.9,0,0,1-1.82.13,1,1,0,0,1-.52-.28.79.79,0,0,1-.21-.73,1.59,1.59,0,0,1,.72-.94,1.69,1.69,0,0,1,1.12-.24,1.61,1.61,0,0,1,.94.53,1.35,1.35,0,0,1,.36.92A.68.68,0,0,1,348.6,400.38Z" style="fill:#263238"></path><path d="M186.87,388.62c1.54-.42-.22-2.66-1.83-1.54S185.33,389.05,186.87,388.62Z" style="fill:#fff"></path><path d="M186.87,388.62a1.12,1.12,0,0,0,.42-.25.53.53,0,0,0,.1-.43,1,1,0,0,0-.59-.63,1.49,1.49,0,0,0-1.43.15,2.41,2.41,0,0,0-.5.41s-.07.05,0,.14.11.18.21.28A2.16,2.16,0,0,0,186.87,388.62Zm0,0a4.34,4.34,0,0,1-2,.12,1.2,1.2,0,0,1-.57-.31.89.89,0,0,1-.22-.79,1.68,1.68,0,0,1,.8-1,1.8,1.8,0,0,1,1.22-.27,1.76,1.76,0,0,1,1.05.57,1.45,1.45,0,0,1,.41,1A.75.75,0,0,1,186.87,388.62Z" style="fill:#263238"></path><path d="M104.52,369.85c1.54-.42-.22-2.65-1.83-1.54S103,370.28,104.52,369.85Z" style="fill:#fff"></path><path d="M104.52,369.85a1.1,1.1,0,0,0,.42-.24.55.55,0,0,0,.1-.44,1,1,0,0,0-.59-.63,1.46,1.46,0,0,0-1.43.16,2.14,2.14,0,0,0-.5.4s-.07,0,0,.14a.75.75,0,0,0,.22.28A2.16,2.16,0,0,0,104.52,369.85Zm0,0a4.24,4.24,0,0,1-2,.12,1.22,1.22,0,0,1-.56-.31.88.88,0,0,1-.22-.79,1.71,1.71,0,0,1,.8-1,1.8,1.8,0,0,1,1.22-.27,1.76,1.76,0,0,1,1.05.57,1.45,1.45,0,0,1,.41,1A.74.74,0,0,1,104.52,369.85Z" style="fill:#263238"></path><path d="M309.6,419.45c-1.94,1.94,6.84,4.11,9.92,2.4S313,416,309.6,419.45Z" style="fill:#263238"></path><path d="M175,405.77c-.8,1.93,2.81,4.1,4.08,2.39S176.4,402.34,175,405.77Z" style="fill:#263238"></path><path d="M479.22,411c-1.73,1.48,2.77,5.18,5.1,4.13S482.26,408.38,479.22,411Z" style="fill:#263238"></path><path d="M327.11,419.58c2.56-.71-.37-4.42-3.05-2.57S324.55,420.29,327.11,419.58Z" style="fill:#263238"></path><path d="M141.78,392.94c2.56-.71-.37-4.42-3.05-2.57S139.22,393.64,141.78,392.94Z" style="fill:#263238"></path><path d="M174.36,402.52c1.36-.38-.2-2.35-1.62-1.36S173,402.9,174.36,402.52Z" style="fill:#263238"></path><path d="M224.63,401.41c1.36-.37-.19-2.35-1.62-1.36S223.27,401.79,224.63,401.41Z" style="fill:#263238"></path><path d="M472.34,414.66c1.53-.42-.23-2.65-1.84-1.54S470.8,415.09,472.34,414.66Z" style="fill:#263238"></path></g><g id="freepik--character-1--inject-328"><path d="M471,359.92c-2.14,1.26-68.93,13.34-71.76,12.27-.34-.12-4.35-12.59-4.35-12.59l-17.74-41.5,41.09-8.56,17.92,34s10.55,2.28,19.3,4.37h0c5.38,1.29,10.1,2.5,11.24,3.07C469.67,352.49,473.09,358.67,471,359.92Z" style="fill:#eb9481"></path><path d="M436,344.82l-42.49,12.4s-26.71-53-28.47-55.35c-1.9-2.5-64.32,18.94-90.93-1.15-18.75-14.15-4.91-45.72-4.91-45.72L325,256.59a57.78,57.78,0,0,1-1.42,8.86s43.66-4.49,58.15-2.56c3.33.44,12.94,4.66,18.26,11.68C417.72,297.92,436,344.82,436,344.82Z" style="fill:#eb9481"></path><path d="M359.82,261.72l-22.59,47.82s-56.51,9.85-69.6-12.47c-10.29-17.54,1.56-42.07,1.56-42.07L325,256.59l-.09,5.64Z" style="fill:#455a64"></path><path d="M347.91,266.16c-2.83,5.36-5.4,10.83-8,16.32s-5,11-7.41,16.58c-1.33,3.14-2.52,6.34-3.84,9.48,0,.1.11.17.15.08,1.28-2.77,2.71-5.47,4-8.22s2.54-5.44,3.79-8.17c2.52-5.51,5-11,7.45-16.56,1.41-3.11,2.72-6.25,4-9.41A.11.11,0,1,0,347.91,266.16Z" style="fill:#263238"></path><path d="M293.09,260.59a4.69,4.69,0,0,1-.33.72.1.1,0,0,0,0,.13c-.79,2.23-1.17,4.62-1.94,6.86a10.83,10.83,0,0,1-4.37,5.84c-4.36,2.82-9.54,4-14.54,5.08a.14.14,0,0,0,0,.28,27.58,27.58,0,0,0,8.52-1,22.47,22.47,0,0,0,7.25-3.2,11.17,11.17,0,0,0,4.3-6,37.45,37.45,0,0,0,.84-4,31.31,31.31,0,0,0,.64-4.62A.21.21,0,0,0,293.09,260.59Z" style="fill:#263238"></path><path d="M269.19,255c.13.18,55.2,2.17,55.84,1.59.9-.83,4-51.86-2.6-64.67-1.86-3.65-12.32-5.7-17.27-1.15C284.13,210.07,268.74,254.35,269.19,255Z" style="fill:#eb9481"></path><path d="M269.19,255c.13.18,55.2,2.17,55.84,1.59a7.56,7.56,0,0,0,2.27-4.48c1.07-12.64.59-49.53-4.87-60.19-1.86-3.65-12.32-5.7-17.27-1.15-17.57,16.13-33,48.69-36.73,59.67A6,6,0,0,0,269.19,255Z" style="fill:#F68A1E"></path><path d="M327.65,245.5c0,1.19-.09,2.31-.14,3.34l-57.21-3.27c.41-1,.87-2.11,1.37-3.26Z" style="fill:#fff"></path><path d="M327.75,236.73c0,1.15,0,2.27,0,3.34L274.1,237c.49-1.06,1-2.14,1.57-3.25Z" style="fill:#fff"></path><path d="M327.69,231.73l-49.54-2.83c.56-1.07,1.13-2.14,1.72-3.24l47.74,2.72C327.65,229.51,327.68,230.63,327.69,231.73Z" style="fill:#fff"></path><path d="M299.79,214.54c-.87,3.49-1.83,7-2.79,10.42s-2,6.92-3,10.37-2.07,6.89-3.15,10.32-2.18,6.86-3.35,10.27c.87-3.5,1.83-7,2.79-10.43s2-6.91,3-10.37,2.07-6.89,3.16-10.32S298.62,217.94,299.79,214.54Z" style="fill:#263238"></path><path d="M319.87,201.38c.28,4.6.45,9.2.57,13.81s.14,9.22.15,13.83-.13,9.22-.42,13.83a51.79,51.79,0,0,1-.82,6.89c-.58,2.24-1.26,4.44-2,6.63.58-2.23,1.19-4.46,1.64-6.71a50.1,50.1,0,0,0,.6-6.84c.18-4.6.25-9.2.25-13.8s0-9.21,0-13.82Z" style="fill:#263238"></path><path d="M273.13,239.08c4.56.12,9.11.31,13.66.51l13.65.65,13.64.72,6.82.36c2.28.13,4.55.21,6.83.3-4.56.15-9.12,0-13.67-.08s-9.11-.35-13.66-.55-9.1-.51-13.64-.83S277.67,239.51,273.13,239.08Z" style="fill:#263238"></path><path d="M276.74,231.62c4.26.13,8.51.32,12.76.52l12.75.66,12.74.72c4.24.24,8.49.48,12.74.64-4.26.16-8.52.05-12.77-.06s-8.5-.35-12.76-.56-8.49-.51-12.73-.83S281,232.05,276.74,231.62Z" style="fill:#263238"></path><rect x="314.55" y="221.6" width="10.89" height="3.55" style="fill:#263238"></rect><rect x="314.55" y="228.4" width="10.89" height="3.55" style="fill:#263238"></rect><rect x="313.57" y="246.06" width="10.89" height="3.55" style="fill:#263238"></rect><path d="M319.42,201.38c-3.3,0-9.87-5.69-11-10.69-.08-.35,1.26-3.35,2.71-7.08.87-2.27,1.79-4.82,2.46-7.2.14-.49,13.93,7.83,13.93,7.83a39.42,39.42,0,0,0-4,8.75,5.33,5.33,0,0,0-.17,1,1.43,1.43,0,0,1,0,.16C323.06,196.11,323,201.39,319.42,201.38Z" style="fill:#eb9481"></path><path d="M327.5,184.25a40.24,40.24,0,0,0-3.72,7.78c-2.26-.47-8.66-1.2-12.43-9,.79-2.11,1.61-4.42,2.22-6.6C313.71,175.92,327.5,184.25,327.5,184.25Z" style="fill:#263238"></path><path d="M310.11,158.5c-2.35,5.26-1.44,21.4,2,25.4,5,5.81,14.15,7.45,19.33,1.22,5-6,3.46-27.05-.48-30.79C325.17,148.82,313.58,150.74,310.11,158.5Z" style="fill:#eb9481"></path><path d="M324.32,169.87s-.08.06-.08.1c.09,1.09,0,2.35-.95,2.76,0,0,0,.07,0,.06C324.49,172.56,324.58,170.89,324.32,169.87Z" style="fill:#263238"></path><path d="M323.29,168.79c-1.75,0-1.71,3.47-.08,3.51S324.77,168.82,323.29,168.79Z" style="fill:#263238"></path><path d="M330.63,170s.08.05.08.1c0,1.09.14,2.34,1.13,2.69a0,0,0,0,1,0,.06C330.63,172.66,330.43,171,330.63,170Z" style="fill:#263238"></path><path d="M331.59,168.82c1.75-.15,1.93,3.36.31,3.5S330.12,169,331.59,168.82Z" style="fill:#263238"></path><path d="M322,167.38a12.83,12.83,0,0,0,1.33.55,2.32,2.32,0,0,0,1.47.29.74.74,0,0,0,.51-.75A1.84,1.84,0,0,0,324,166.1a2.69,2.69,0,0,0-1.95-.16A.79.79,0,0,0,322,167.38Z" style="fill:#263238"></path><path d="M333.16,166a13.85,13.85,0,0,1-1.44,0,2.4,2.4,0,0,1-1.47-.32.76.76,0,0,1-.16-.9,1.85,1.85,0,0,1,1.71-.75,2.69,2.69,0,0,1,1.84.64A.79.79,0,0,1,333.16,166Z" style="fill:#263238"></path><path d="M323.44,180c.27.25.53.6.93.63a2.76,2.76,0,0,0,1.16-.29s.07,0,.05.06a1.45,1.45,0,0,1-1.37.6,1.14,1.14,0,0,1-.87-1C323.32,180,323.4,180,323.44,180Z" style="fill:#263238"></path><path d="M324.55,176.72a3.74,3.74,0,0,0,2.49,1.62,4.62,4.62,0,0,0,1.34,0,1.07,1.07,0,0,0,.25,0l.24,0a.27.27,0,0,0,.21-.25h0a.41.41,0,0,0,0-.11h0v-.09c0-.84-.09-2.11-.09-2.11.31.15,1.88.83,1.85.39a55.37,55.37,0,0,0-1.58-11.2c0-.12-.21-.09-.2,0,.12,3.49.85,6.94,1,10.45a6.07,6.07,0,0,0-1.76-.51c-.12,0,.23,2.45.2,2.83a.1.1,0,0,1,0,0,5.11,5.11,0,0,1-3.85-1.14C324.57,176.56,324.48,176.63,324.55,176.72Z" style="fill:#263238"></path><path d="M327.88,178a4.43,4.43,0,0,1-1.75,1.39,2,2,0,0,1-1.2.09c-.87-.22-.9-1-.75-1.7a4.85,4.85,0,0,1,.37-1.05A5.73,5.73,0,0,0,327.88,178Z" style="fill:#263238"></path><path d="M326.13,179.35a2,2,0,0,1-1.2.09c-.87-.22-.9-1-.75-1.7A2,2,0,0,1,326.13,179.35Z" style="fill:#ff9bbc"></path><path d="M308.85,170c.88-.8,2.39-3.87,3.14-5.24.86-1.55,1.29-8.5,1.4-10.47a11.27,11.27,0,0,0-3.28,4.2C309.06,160.85,308.66,165.37,308.85,170Z" style="fill:#263238;opacity:0.2"></path><path d="M327.27,158.83a5.36,5.36,0,0,1-4.78,2.1,5.47,5.47,0,0,1-4.38-3s-.11,0-.08,0a5.39,5.39,0,0,0,4.41,3.42,5.53,5.53,0,0,0,4.94-2.45A.07.07,0,0,0,327.27,158.83Z" style="fill:#263238"></path><path d="M321,146a8.42,8.42,0,0,0-6.86,4.3,6.06,6.06,0,0,0-.36,3.94c0,.05.12,0,.11,0a6.62,6.62,0,0,1,2.77-6.13,8.51,8.51,0,0,1,7.46-1.33,5.38,5.38,0,0,1,3,2.15c.07.11.3,0,.24-.09C326.41,146.89,323.79,145.73,321,146Z" style="fill:#263238"></path><path d="M339.37,151.64a6.92,6.92,0,0,0-3.13-3.51c-2-1.06-4.1-.77-6.22-.43-.06,0,0,.1,0,.09a9.44,9.44,0,0,1,5.37.3,6.75,6.75,0,0,1,3.3,3.09,6.57,6.57,0,0,1-2.25,8.29,6.67,6.67,0,0,1-5.22.83c-.07,0-.11.08,0,.1a6.7,6.7,0,0,0,8.18-8.76Z" style="fill:#263238"></path><path d="M309.11,161.8s-3.23-5.39-.94-8.73c1.3-1.89,5.93-1.9,5.93-1.9a8.4,8.4,0,0,1,5.14-3.81c3.83-1.09,8.55.93,8.55.93s3.57-2.3,7.12-.51c4.94,2.5,4.72,9.84,0,12.45-3.31,1.83-8.07-.94-8.07-.94-.44.09-4.84,3.06-8.48-.81,0,0-2.66,2.62-5.26,1A4,4,0,0,1,309.11,161.8Z" style="fill:#263238"></path><path d="M312.47,172s-3-5.49-5.49-4.46-.55,8.73,2.07,10a2.79,2.79,0,0,0,3.87-1.1Z" style="fill:#eb9481"></path><path d="M307.58,169.78s-.06.05,0,.07c1.83,1,2.65,2.85,3.16,4.76a1.54,1.54,0,0,0-2.25-.66c-.05,0,0,.11,0,.11a1.71,1.71,0,0,1,1.81.79,8.4,8.4,0,0,1,.74,1.61c.07.18.39.12.34-.08v0C311.71,173.9,310.17,170.3,307.58,169.78Z" style="fill:#263238"></path><path d="M306.89,195.7c-4.26-.41-8.47,3.6-10.08,12.2s8,15.61,13.36,15.1c7.36-.7,4.6-9.68,2.86-16.14C311.22,200.16,308.77,195.88,306.89,195.7Z" style="fill:#eb9481"></path><path d="M301.22,208.9c1.55,19.15,4.45,41.37,9.65,43.82,16.82,7.91,33.52,7.6,43.22,7.72,4.19.05,14.86-28.39,10.67-30-3.73-1.39-41.22.69-41.95-.79s-4-10.65-9.39-25.53C308.36,190.3,300.05,194.5,301.22,208.9Z" style="fill:#eb9481"></path><path d="M357.62,230.31s12.15-.59,20.11-.6c4.44,0,12.06.65,15.32,2.14,4.89,2.22,23.9,14.64,21,19.32-2.64,4.23-17.62-8.52-17.62-8.52s16.25,11.53,12.14,16-19.12-12.14-19.12-12.14,16.44,12.22,11.46,16.2c-3.76,3-18.2-11.31-18.2-11.31S396.75,262,393,265.3c-4.13,3.6-18.29-8.77-18.29-8.77-10.88,6.69-18.8,5.42-24.33,3.85C349.06,260,357.62,230.31,357.62,230.31Z" style="fill:#eb9481"></path><path d="M391.06,238.31c2,1.28,3.95,2.57,5.78,4s3.63,3,5.32,4.6a39.35,39.35,0,0,1,6,6.92c-3.39-4.26-9.88-9.57-11.72-11s-3.6-3-5.43-4.44C391,238.34,391,238.28,391.06,238.31Z" style="fill:#263238"></path><path d="M385.69,244.85c2.43,1.75,4.9,3.39,7.25,5.25s4.4,3.8,6.61,5.81c.17.15,0,.19-.14,0-2.29-1.91-4.55-3.5-6.86-5.39s-4.54-3.86-6.91-5.66C385.6,244.87,385.65,244.82,385.69,244.85Z" style="fill:#263238"></path><path d="M380.07,249.63a66.74,66.74,0,0,1,10.48,8.88c.16.16,0,.19-.2,0-3.43-3-6.1-5.41-10.37-8.79C379.91,249.71,380,249.58,380.07,249.63Z" style="fill:#263238"></path><path d="M302.5,220.25a24.18,24.18,0,0,1-.69-3.53,23.92,23.92,0,0,1-.2-3.6,22.82,22.82,0,0,1,.69,3.54A22.55,22.55,0,0,1,302.5,220.25Z" style="fill:#263238"></path><path d="M300.7,214.54a5.09,5.09,0,0,1,.74,1.06l.59,1.12a1.27,1.27,0,0,1-.61-.34,2.38,2.38,0,0,1-.42-.54A2.42,2.42,0,0,1,300.7,214.54Z" style="fill:#263238"></path></g><g id="freepik--character-2--inject-328"><path d="M248.31,213.14c-5.36,8.51-10.37,19.63-19.3,25-7,4.21-15.63,4.32-23.44,2.82-17.17-3.32-36.09-15.35-36.22-34.78-.06-7.76,6.86-19,15.71-18.78,4.54.15,8.59,2.26,12.79,3.76a18.36,18.36,0,0,0,15.9-1.12c10.09-5.53,13.56-12.31,20.73-20.91a7.93,7.93,0,0,1,5.57-3.25,14.16,14.16,0,0,1,7.52.76,14,14,0,0,1,6.2,2.95c3.76,3.24,5,9.68,6.57,14.19s1.28,8-1.24,12.2C255.59,201.75,251.91,207.42,248.31,213.14Z" style="fill:#263238"></path><path d="M246.63,217.74c4.41-8.12,8.66-16.31,13-24.49,0,0,0-.09-.07,0-3.74,6.62-7.56,13.18-11.21,19.85s-6.82,13.51-11,19.71c-9.29,13.92-27.31,9.69-38.53.9-.51-.4-1.09.45-.56.84,10.09,7.41,24.8,12.43,35.67,3.42C239.87,233,243,224.37,246.63,217.74Z" style="fill:#263238"></path><path d="M235.64,168.88c.1-.15-.12-.29-.23-.15-5.6,7.32-11.44,16.37-20.31,20a23.4,23.4,0,0,1-13.79,1.14c-3.64-.81-6.72-2.8-10.09-4.28-13.19-5.79-24.19,9.8-20,21.77.09.25.53.11.45-.15-2.65-8.85,1.37-18.81,10.6-21.75,7.4-2.37,13.74,4.42,20.94,5.37C218.11,192.76,228.25,180,235.64,168.88Z" style="fill:#263238"></path><path d="M388.75,374.69c-2.27,1-71.14,6.93-73.83,5.52-.33-.14-1-6.36-1.77-14.88v-.17c-.51-5.4-17.24-39-17.24-39l42.69-5.92,18.06,34.47s9.65,3.05,18.09,6.17l0,0c5.21,1.91,9.74,3.68,10.81,4.39C388.35,367.16,391,373.71,388.75,374.69Z" style="fill:#d3766a"></path><path d="M355.7,354.85l-42.91,8.69s-25.07-53.65-26.44-54.74c-2.17-1.73-59.51,19.41-80.09.41-19.91-18.38-2.25-43.89-2.25-43.89h50.53a31.19,31.19,0,0,0-.71,5.66s47.54-11.34,60.15-.65C325.07,279.74,355.7,354.85,355.7,354.85Z" style="fill:#d3766a"></path><path d="M254.54,265.32a32.33,32.33,0,0,0-.71,5.66s-37.25,7.3-50,35.7c-15.87-18.1.22-41.36.22-41.36Z" style="fill:#455a64"></path><path d="M254.54,265.32H204S220.2,223,234.64,211.07c6.58-5.41,12.09-3.73,16.35.86,1.07,1.14,12.68,23.58,13.08,30.28.36,5.92-6.86,10.17-6.86,10.17Z" style="fill:#d3766a"></path><path d="M264.07,242.21c.35,5.92-6.86,10.17-6.86,10.17l-2.67,12.94H204a205.75,205.75,0,0,1,13-28.82s7.64,2.52,15.09,0c.67-.23,8-7.53,8.24-8s-2.22-16.72-3.57-19c-.49-.83,2.39-1.19,2.39-1.19.57,1.62,3.92,14.41,3.88,19.52,0,0,11.51,1.37,14.31.92,0,0-2.42-8.16-3.8-12.4C257.29,223.55,263.77,237.23,264.07,242.21Z" style="fill:#455a64"></path><path d="M251.41,249.06a33.42,33.42,0,0,0-6.53.4c-1.09.19-2.17.45-3.25.75-.54.14-1.07.26-1.62.38a5.39,5.39,0,0,1-1.69.16s-.06.09,0,.1a8.15,8.15,0,0,0,1.56.22,9.14,9.14,0,0,0,1.56-.14c1.1-.19,2.2-.44,3.3-.64,2.22-.4,4.45-.8,6.67-1C251.5,249.3,251.51,249.07,251.41,249.06Z" style="fill:#263238"></path><path d="M256.2,252.52a33.12,33.12,0,0,0-5.19-1.21,23.65,23.65,0,0,0-2.66-.22h-1.28c-.47,0-.95.1-1.42.09-.05,0-.07.11,0,.11.44,0,.87.14,1.31.2l1.32.17c.88.11,1.76.24,2.64.34,1.77.21,3.52.44,5.27.73C256.27,252.74,256.29,252.55,256.2,252.52Z" style="fill:#263238"></path><path d="M240.9,210.54c.23,1.1,5.34,8.27,10.34,8.11,1.63-.05,1.73-9,1.73-9l.16-.66,2.19-9.17-10.7-7.1-1.55-.94s-.43,2.55-.95,5.73c0,.14-.05.29-.07.45s-.07.35-.09.52q-.12.71-.24,1.44c-.05.37-.11.72-.15,1.11s-.1.77-.16,1.16A59.44,59.44,0,0,0,240.9,210.54Z" style="fill:#d3766a"></path><path d="M242.12,197.56a18.9,18.9,0,0,0,11,11.48l2.19-9.17-10.7-7.1-1.55-.94S242.64,194.38,242.12,197.56Z" style="fill:#263238"></path><path d="M265.56,180.93c6.41,15.26-2,20.82-5.3,22.2-3,1.25-13.32,5.13-21.27-9.39s-2.89-22.32,3.8-25.54S259.16,165.67,265.56,180.93Z" style="fill:#d3766a"></path><path d="M239.64,193.15c4-1.18,1.93-13.75,1.67-15.3.22,1,1.39,6.06,1.83,6.16a4.19,4.19,0,0,0,1.19-.56h0a12.8,12.8,0,0,1-.33-1.84c0-.29.27.58.7,1.63l.69-.4a15.07,15.07,0,0,1-.62-3.94c0-.5.68,1.61,1.62,3.37a50,50,0,0,1,10-4.56c1-.29,1.85-.51,2.62-.67-.38-1.49-1-3-.77-2.72a15.08,15.08,0,0,1,1.34,2.61l1.16-.21c-.44-2.13-2.32-5.24-1.85-4.81a15.27,15.27,0,0,1,3.38,4.66c1.51-.09,2,.08,1.93-.3a18.18,18.18,0,0,0-8.18-9.5c-6.21-3.41-16.47-2-20.2,6.69,0,0-3.84,4.22-3.31,9.27S237.36,193.83,239.64,193.15Z" style="fill:#263238"></path><path d="M241.32,199.38a3.34,3.34,0,0,0,.79,0,2.64,2.64,0,0,0,.75-.22,2.3,2.3,0,0,0,.81-.59,2.45,2.45,0,0,0,.45-.65,3.14,3.14,0,0,0,.31-1.08l-2.22-3.93s-5-3.81-6.86-1.86S238.39,199.25,241.32,199.38Z" style="fill:#d3766a"></path><path d="M236.79,192.78a0,0,0,0,0,0,.07c2.08.15,3.59,1.55,4.84,3.1a1.54,1.54,0,0,0-2.33.3c0,.05,0,.11.08.08a1.71,1.71,0,0,1,2,0,8.33,8.33,0,0,1,1.34,1.18c.14.13.4,0,.28-.22l0,0C242.26,194.9,239.38,192.2,236.79,192.78Z" style="fill:#263238"></path><path d="M262.24,179.61a8.28,8.28,0,0,1-1.11.18,1.77,1.77,0,0,1-1.16,0,.57.57,0,0,1-.25-.66,1.42,1.42,0,0,1,1.19-.82,2.18,2.18,0,0,1,1.5.22A.61.61,0,0,1,262.24,179.61Z" style="fill:#263238"></path><path d="M252.33,183.51c.33-.18.62-.4.93-.61s.67-.39.84-.8a.56.56,0,0,0-.25-.66,1.43,1.43,0,0,0-1.44.2,2.11,2.11,0,0,0-1,1.16A.62.62,0,0,0,252.33,183.51Z" style="fill:#263238"></path><path d="M253.81,187.33a1,1,0,0,1-.18.35.68.68,0,0,1-.52.31c-.66.08-1.07-.53-1.26-1.17,0,0,0-.08,0,0,.34.27.72.55,1.08.41s.39-.36.54-.59A4.41,4.41,0,0,0,253.81,187.33Z" style="fill:#263238"></path><path d="M253.51,187.23a1.65,1.65,0,0,1,.06-.9,1.23,1.23,0,0,1,.7-.68,1.12,1.12,0,0,1,1,.13,1.94,1.94,0,0,1,.59.66,4.31,4.31,0,0,1,.22.49,2.4,2.4,0,0,1,.14,1.09,3.73,3.73,0,0,0-.31-.74,4.28,4.28,0,0,0-.4-.61c-.3-.39-.69-.66-1-.51s-.54.53-.53,1a8.4,8.4,0,0,0,.24,1.52A3.36,3.36,0,0,1,253.51,187.23Z" style="fill:#263238"></path><path d="M263.64,183.5a1.16,1.16,0,0,0,.38.11.7.7,0,0,0,.58-.18c.5-.43.34-1.14,0-1.71,0,0-.06-.05-.06,0,0,.44-.09.9-.43,1.07a1.4,1.4,0,0,1-.81,0A3,3,0,0,1,263.64,183.5Z" style="fill:#263238"></path><path d="M263.77,183.21a1.71,1.71,0,0,0-.7-.56,1.24,1.24,0,0,0-1,0,1.09,1.09,0,0,0-.57.8,2,2,0,0,0,.09.89,3,3,0,0,0,.21.49,2.29,2.29,0,0,0,.7.84,3.41,3.41,0,0,1-.33-.73,4.81,4.81,0,0,1-.18-.7c-.08-.49,0-1,.33-1.12a1,1,0,0,1,1.12.32,7.82,7.82,0,0,1,1,1.21A3.4,3.4,0,0,0,263.77,183.21Z" style="fill:#263238"></path><path d="M258.77,194.83c.33.16.69.42,1.08.33a2.77,2.77,0,0,0,1-.62s.08,0,.07,0a1.5,1.5,0,0,1-1.16,1,1.18,1.18,0,0,1-1.12-.67C258.64,194.85,258.72,194.8,258.77,194.83Z" style="fill:#263238"></path><path d="M261.65,189.45s.8,1.46,1.08,2.19c0,.07-.14.17-.38.28h0a3.7,3.7,0,0,1-3.85,0c-.08,0,0-.16.07-.14a5.67,5.67,0,0,0,3.5-.3c0-.23-1.46-2.46-1.35-2.51a7,7,0,0,1,1.8-.26c-1.59-3.08-3.65-5.89-5.18-9a.11.11,0,0,1,.18-.12,56.34,56.34,0,0,1,6,9.45C263.7,189.44,262,189.47,261.65,189.45Z" style="fill:#263238"></path><path d="M262.15,191.43a4.47,4.47,0,0,1-1,2.06,2,2,0,0,1-1.06.63c-.9.2-1.29-.52-1.46-1.22a4.4,4.4,0,0,1-.13-1.13A5.84,5.84,0,0,0,262.15,191.43Z" style="fill:#263238"></path><path d="M261.18,193.49a2,2,0,0,1-1.06.63c-.9.2-1.29-.52-1.46-1.22A2.1,2.1,0,0,1,261.18,193.49Z" style="fill:#ff9bbc"></path><path d="M264.79,242.68c-.58-10.55-8.76-23.8-12.14-27.94a23,23,0,0,1,3.06,7.19c.84,3.3.74,6.33-.59,7.16s-8.05-4.9-9.52-6.73-5.76-13.94-4.25-15.36a8.93,8.93,0,0,0-6.13,2c-15.51,14.25-29.43,42.82-32.74,52.51-.65,1.91.9,4.44,1,4.53s50.53,1.51,51.09,1c.13-.13,2.77-1.87,3.28-4.08.64-2.79.56-10.28.56-10.28S265.1,248.24,264.79,242.68Zm-38.21-3.77c-8-.43-5-15.33,5.12-25,4.8-4.62,8.81-2.95,9.6,8.06S234.55,239.34,226.58,238.91Z" style="fill:#F68A1E"></path><path d="M257.77,263.17a6.58,6.58,0,0,1-2,2.88l-51.74-1.82-1.46-.05a4.38,4.38,0,0,1-.12-2.63c0-.1.07-.21.11-.31l1.29,0Z" style="fill:#fff"></path><path d="M258.37,255.43c0,.89-.05,1.92-.09,2.95l-52.53-1.84-1.29-.05c.38-.91.81-1.89,1.27-2.91l1.3,0Z" style="fill:#fff"></path><path d="M228.54,238.91c-.52,2.31-1.12,4.59-1.74,6.87s-1.29,4.55-1.93,6.82-1.37,4.52-2.1,6.77-1.47,4.49-2.29,6.71c.52-2.31,1.12-4.59,1.74-6.88s1.29-4.54,1.93-6.81,1.37-4.52,2.1-6.77S227.72,241.13,228.54,238.91Z" style="fill:#263238"></path><path d="M255.12,229.09a27.22,27.22,0,0,1,2.19,6.6,43.34,43.34,0,0,1,.87,6.93,12,12,0,0,1-2.05,6.72,16.84,16.84,0,0,1-5,4.9l.1-.15a26.49,26.49,0,0,1-.95,3.17l-1.1,3.09c-.76,2-1.54,4.1-2.34,6.13l2.12-6.2,1-3.12a31.55,31.55,0,0,0,.85-3.12l0-.1.07-.05a17.71,17.71,0,0,0,4.67-4.9,11.31,11.31,0,0,0,1.87-6.36,52.83,52.83,0,0,0-.69-6.84A39.19,39.19,0,0,0,255.12,229.09Z" style="fill:#263238"></path><path d="M203.45,258.94c4.56.09,9.12.25,13.67.41l13.66.57,13.65.67,6.82.34c2.28.13,4.55.22,6.83.31-4.56.14-9.12,0-13.67-.07s-9.11-.32-13.67-.5-9.1-.45-13.65-.74S208,259.34,203.45,258.94Z" style="fill:#263238"></path><path d="M206.51,251.9c4.33.06,8.65.19,13,.33l13,.48,13,.58c4.32.21,8.63.43,13,.59-4.33.15-8.66.07-13,0s-8.65-.26-13-.41-8.64-.4-13-.66S210.82,252.27,206.51,251.9Z" style="fill:#263238"></path><rect x="251.73" y="235.78" width="9.61" height="3.13" style="fill:#263238"></rect><rect x="252.32" y="241.78" width="9.61" height="3.13" style="fill:#263238"></rect><path d="M227.71,221.59c-17.36-11.49-41.64-34.93-41.3-42.69.32-7.16,8.94-25.66,18.23-42.83,1.85-3.41,27.61,12.34,25.29,15.78-4.59,6.77-14.83,22.89-15.61,27.57-.34,2,13.38,18.33,21.27,31.09C242.52,221.73,234.35,226,227.71,221.59Z" style="fill:#d3766a"></path><path d="M204.3,137.35c.9-3.16,6.27-17.5,8.65-21.1s10-13.44,12.93-11.89.94,4.6.94,4.6,3.87-3.65,6.69-1.82-.45,6.48-.45,6.48,4.25-3.46,6.93-1.43-1.39,6.15-1.39,6.15,3.74-3.34,5.25-.75c1.81,3.12-5.78,8.51-8.11,12.67-.53,1-9.37,19.94-9.37,19.94Z" style="fill:#d3766a"></path><path d="M238.94,118c-5.56,4-7.31,6.68-9.86,12.91-.05.12-.24.07-.2-.06,1.94-6.33,3.64-10,9.89-13.13C239.07,117.55,239.21,117.79,238.94,118Z" style="fill:#263238"></path><path d="M233.51,113.32c-5.42,4.63-7.35,7.54-10.49,13.87-.05.09-.21,0-.17-.07,2.57-6.47,4.36-10.13,10.38-14C233.51,112.9,233.76,113.1,233.51,113.32Z" style="fill:#263238"></path><path d="M226.67,109.29c-4.92,4.86-7.17,8-9.44,14.51a.13.13,0,0,1-.24-.07c1.66-6.9,4.44-10.79,9.52-14.57C226.86,108.9,227,109,226.67,109.29Z" style="fill:#263238"></path><path d="M224.81,154.21s7.78-3.6,10.85-5.93S247,133,244.26,131.09c-3.47-2.5-9.68,4-12.31,7.61,0,0-8-5.79-13.5-2.07S224.81,154.21,224.81,154.21Z" style="fill:#d3766a"></path><path d="M243.09,130.72c-4.81,0-8,4.94-10.77,8.23a.39.39,0,0,1-.65,0c-3.52-2.2-9.14-4.28-13.17-2.55a.1.1,0,0,1-.1-.18c4.08-2.44,9.76-.84,13.47,1.82,2.83-3.43,6.2-8.24,11.22-7.33A0,0,0,0,1,243.09,130.72Z" style="fill:#263238"></path><path d="M226.09,220.5a22.38,22.38,0,0,1,3.17,1.7,23.07,23.07,0,0,1,2.91,2.13,23.5,23.5,0,0,1-3.17-1.71A23,23,0,0,1,226.09,220.5Z" style="fill:#263238"></path><path d="M230.5,224.55a3.54,3.54,0,0,1-.95-.9,2.11,2.11,0,0,1-.46-1.22,3.76,3.76,0,0,0,.3.56c.12.17.23.35.36.52C230,223.86,230.27,224.18,230.5,224.55Z" style="fill:#263238"></path></g></svg>