<svg xmlns="http://www.w3.org/2000/svg" viewBox="0 0 750 500"><g id="freepik--background-complete--inject-21"><circle cx="64.02" cy="214.87" r="3.23" style="fill:#f5f5f5"></circle><path d="M102.39,214.46A3.46,3.46,0,1,1,98.93,211,3.46,3.46,0,0,1,102.39,214.46Z" style="fill:#f5f5f5"></path><path d="M63,233a2.22,2.22,0,1,1-2.22-2.21A2.22,2.22,0,0,1,63,233Z" style="fill:#f5f5f5"></path><circle cx="121.95" cy="220.94" r="2.21" style="fill:#f5f5f5"></circle><path d="M560,397.87c9.86-4.1,8.57-2.64,17.9-9.69,7.88-5.95,18.59-9.39,27.46-13.56a6.54,6.54,0,0,1,7.45,1.34c4,4,10.42,5.53,15.6,3.23,4.27-1.89,7.28-5.77,11-8.52s9.45-4.18,12.85-1c1.07,1,1.79,2.38,3,3.24,3.69,2.64,8.49-1,11.76-4.18A82.09,82.09,0,0,1,701.21,349c4.54-1.31,10.12-2,13.07,2.23a8.3,8.3,0,0,1,1.37,5.32c-.25,4.12-2.57,7.49-4.85,10.75,4.63-2.33,9.61-4.75,14.94-2.8a6.53,6.53,0,0,1,2.78,1.94c6.49,7.75-5,11.24-10.51,13.36,0-1.76-76.92,5.19-105.82,9.28C586.53,392.7,560,397.87,560,397.87Z" style="fill:#f5f5f5"></path><path d="M297,431.15s-1.49,3.37,1.14,7.59,2.27,7.16,2.27,7.16l-5.81-1.47s-3.36,2.81,1.75,7.82l4.14-4.09a7.43,7.43,0,0,1,.39,6.95c-1.82,3.5,3,9.28,3,9.28s13.64-2,22.71-12.65a33.64,33.64,0,0,0,6-9.56S321.19,425.13,297,431.15Z" style="fill:#ebebeb"></path><path d="M328.34,439.72a.42.42,0,0,0-.63-.07c-.25.29-.07,1,.05,1.29a.55.55,0,0,0,.73.3c.27-.18.22-.58.14-.89A1.26,1.26,0,0,0,328.34,439.72Z" style="fill:#e0e0e0"></path><path d="M298.32,448.82a10.11,10.11,0,0,1-1.39,1.3c-.77.7-1.45,1.24-1.52,1.16a6,6,0,0,1,1.29-1.42A3.71,3.71,0,0,1,298.32,448.82Z" style="fill:#e0e0e0"></path><path d="M297.8,448a5.76,5.76,0,0,1-1.8.68,5.65,5.65,0,0,1-1.89.35,5.48,5.48,0,0,1,1.8-.68A5.65,5.65,0,0,1,297.8,448Z" style="fill:#e0e0e0"></path><path d="M297.87,447.05a9.74,9.74,0,0,1-2.15-.27,8.18,8.18,0,0,1-1.48-.42c-.37-.15-.57-.3-.55-.34s.93.23,2.1.43A5.43,5.43,0,0,1,297.87,447.05Z" style="fill:#e0e0e0"></path><path d="M305.71,463.37a52.86,52.86,0,0,1-2-10.42c-.36-3.95-.29-8-1.56-11.76-.43-1.27-1-2.48-1.39-3.76a7.07,7.07,0,0,1-.22-3.94c.27,4.25,3.25,7.85,4.26,12,1.43,5.89-.32,11.95.92,17.88" style="fill:#f5f5f5"></path><path d="M316.45,459.22c-3.81-9-4.9-17.87-4.77-27.6a1.22,1.22,0,0,1,.35-1,.85.85,0,0,1,1.16.48,2.76,2.76,0,0,1,.05,1.4c-.57,4.75,1.23,9.42,2.19,14.11.83,4.08.84,8.47,1,12.63" style="fill:#f5f5f5"></path><path d="M327.29,450.59a97.42,97.42,0,0,1-5.09-16.8,44.06,44.06,0,0,1,4.1,7.81,19.51,19.51,0,0,1,1.37,8.66" style="fill:#f5f5f5"></path><path d="M327,437.85s-.39-.15-1.09-.44-1.71-.72-3-1.18a45.82,45.82,0,0,0-4.54-1.39,19.89,19.89,0,0,0-5.7-.78,8.94,8.94,0,0,0-5.22,2.13,16,16,0,0,0-3.1,3.53c-.75,1.13-1.28,2.08-1.66,2.74a8.25,8.25,0,0,1-.62,1,1.06,1.06,0,0,1,.11-.29q.17-.31.39-.78c.35-.68.85-1.66,1.58-2.81a15.54,15.54,0,0,1,3.1-3.64,9.21,9.21,0,0,1,5.4-2.23,19.26,19.26,0,0,1,5.8.82,40.81,40.81,0,0,1,4.54,1.46c1.27.49,2.27.95,2.95,1.29a8.69,8.69,0,0,1,.78.4C327,437.78,327.05,437.84,327,437.85Z" style="fill:#e0e0e0"></path><path d="M327,446.78s0,.08-.12.23-.23.35-.43.6a19.69,19.69,0,0,1-1.81,2.06,20.82,20.82,0,0,1-16.5,5.94,20.17,20.17,0,0,1-2.7-.43c-.31-.07-.55-.15-.72-.2l-.24-.09a5.29,5.29,0,0,1,1,.16,26.66,26.66,0,0,0,2.69.32,21.63,21.63,0,0,0,16.32-5.88,24.91,24.91,0,0,0,1.87-2A6.41,6.41,0,0,1,327,446.78Z" style="fill:#e0e0e0"></path><path d="M56.3,344.64h0c-1.51,1.4,7.34,15,5.13,16.19s-16,7.69-14.33,7.92S63.52,365.14,64,366.3s1.63,17.94,3.38,17.36,1.16-17,3.61-16.43,15.84,4.78,16.54,3.5-13.94-7.36-14.33-9.55c-.35-2,7-15.14,5.83-14.79s-10,10.86-11.77,10.48C65.16,356.4,57.7,344.06,56.3,344.64Z" style="fill:#e0e0e0"></path><path d="M257.3,426.17a3.79,3.79,0,1,1-3.79-3.79A3.79,3.79,0,0,1,257.3,426.17Z" style="fill:#e0e0e0"></path><circle cx="678.07" cy="428.5" r="3.79" style="fill:#e0e0e0"></circle><path d="M241.52,410.25a1.9,1.9,0,1,1-1.89-1.89A1.9,1.9,0,0,1,241.52,410.25Z" style="fill:#e0e0e0"></path><path d="M688.45,418.7a1.9,1.9,0,1,1-1.9-1.9A1.9,1.9,0,0,1,688.45,418.7Z" style="fill:#e0e0e0"></path><path d="M169.75,407.05a1.9,1.9,0,1,1-1.89-1.9A1.89,1.89,0,0,1,169.75,407.05Z" style="fill:#e0e0e0"></path><path d="M223.21,303.86a28.25,28.25,0,0,0-18.72-20.35c-2.65-.84-5.61-1.38-7.48-3.43s-2.12-4.81-2.35-7.46-.53-5.48-2.28-7.48-5.51-2.38-6.79-.06c-1.38-5.87-3.33-13.45-7.17-18.55a3,3,0,0,0-5.06.45c-1.55,2.82-4.52,5.62-6.54,5.41-3.22-.34-5.64-3.1-7.23-5.92-2-3.52-3.19-7.41-5.06-11-1.57-3-3.79-5.93-7.29-6.68a5.45,5.45,0,0,0-5.6,1.93c-2.31,3.15,0,7.21,2,10.46s3.14,8.22-.33,10.09a4.8,4.8,0,0,1-4.9-.36c-4.67-3.08-4.42-9.5-9.33-12.31a4.59,4.59,0,0,0-4.95.12c-3.9,2.8.91,9.21-2.56,11.33a3.17,3.17,0,0,1-3.67-.42c-1.83-1.53-2.19-3.84-3-5.93-1.45-4-4.38-7.21-7.3-10.27-2.34-2.44-4.9-5-8.51-5.13a5.16,5.16,0,0,0-4.37,1.92c-2,2.69-.35,5.86,1.59,8.11,2.1,2.42,4.75,4.72,4.27,8.33a3.33,3.33,0,0,1-3.31,2.94c-3.31-.13-3.3-4.94-6.87-5A4.67,4.67,0,0,0,86,247.82c-1.06,3,.25,6.12,1.53,8.94q-7.78-4.68-15.55-9.38A3.55,3.55,0,0,0,67,252l0,.07c-2.9-.1-4.7-3-6.45-5.34s-5.18-4.42-7.39-2.44a3.72,3.72,0,0,0-.73,4.33c1.11,2.41,3.53,3.48,5.83,4.45l56.07,23.79c15.24,6.47,30.63,13,46.9,16.05,11.49,2.16,23.24,2.57,34.8,4.38s23.21,5.17,32.39,12.41Z" style="fill:#f5f5f5"></path><path d="M479.31,58.4c.51-3.71-4.73-6.77-8.67-7.09-1.88-.15-3.84.14-5.62-.48-3.86-1.35-5.4-6.33-9.16-7.92-2.82-1.19-6.06-.13-8.78,1.24s-5.43,3.11-8.48,3.3c-2.65.17-5.53-.81-7.85.48-1.73,1-2.63,3-4.22,4.13a10.06,10.06,0,0,1-5.53,1.5,15.83,15.83,0,0,0-5.7.93c-1.76.81-3.22,2.67-2.85,4.57Z" style="fill:#ebebeb"></path><path d="M348.66,167.77c.75-5.43-6.92-9.9-12.69-10.37-2.74-.22-5.6.2-8.2-.71-5.65-2-7.9-9.25-13.4-11.57-4.12-1.74-8.86-.19-12.85,1.81s-7.93,4.54-12.39,4.83c-3.88.24-8.09-1.19-11.48.7-2.53,1.41-3.85,4.32-6.18,6s-5.26,2-8.08,2.19-5.76.19-8.34,1.37-4.7,3.9-4.17,6.68Z" style="fill:#f5f5f5"></path><path d="M144.93,78.59c.65-4.73-6-8.62-11-9-2.39-.19-4.87.17-7.14-.62-4.91-1.71-6.87-8.05-11.65-10.07-3.59-1.51-7.71-.16-11.18,1.58s-6.9,3.95-10.78,4.2c-3.37.21-7-1-10,.61C81,66.5,79.81,69,77.78,70.53s-4.57,1.77-7,1.9-5,.16-7.25,1.19S59.41,77,59.87,79.43Z" style="fill:#f5f5f5"></path><path d="M665.11,216.63c.79-5.74-7.31-10.46-13.4-11-2.91-.23-5.93.21-8.68-.74-6-2.08-8.34-9.78-14.16-12.24-4.34-1.83-9.35-.2-13.57,1.92s-8.38,4.8-13.09,5.1c-4.09.26-8.54-1.26-12.13.74-2.67,1.49-4.07,4.57-6.53,6.39S578,209,575,209.15s-6.08.19-8.8,1.44-5,4.12-4.41,7.06Z" style="fill:#ebebeb"></path></g><g id="freepik--Fishes--inject-21"><path d="M200.38,419.89s-3.12,4.16-.83,10.8.85,10.57.85,10.57l-7.53-3.85s-5.52,2.8-.07,11.32l7-4.32s1.95,5.44-1.67,9.69,1.23,13.74,1.23,13.74,19.41,1.59,35.28-10.22a47.61,47.61,0,0,0,11.27-11.27S235.64,419.27,200.38,419.89Z" style="fill:#F68A1E"></path><path d="M240.86,441.61a.6.6,0,0,0-.85-.29c-.44.32-.42,1.39-.34,1.8a.77.77,0,0,0,.91.64c.43-.16.49-.73.48-1.18A1.91,1.91,0,0,0,240.86,441.61Z" style="fill:#263238"></path><path d="M196.64,444.63a13.88,13.88,0,0,1-2.32,1.35,7.83,7.83,0,0,1-2.46,1.13,7.8,7.8,0,0,1,2.23-1.55A5.44,5.44,0,0,1,196.64,444.63Z" style="fill:#263238"></path><path d="M196.2,443.27a7.61,7.61,0,0,1-2.69.37,7.79,7.79,0,0,1-2.71-.12,15.65,15.65,0,0,1,5.4-.25Z" style="fill:#263238"></path><path d="M196.58,442.05a12.51,12.51,0,0,1-2.87-1.05,11.23,11.23,0,0,1-1.91-1c-.46-.32-.69-.6-.65-.64s1.21.6,2.76,1.25A7.9,7.9,0,0,1,196.58,442.05Z" style="fill:#263238"></path><g style="opacity:0.6000000000000001"><path d="M202.2,467a75,75,0,0,1,.54-15c.76-5.55,2.14-11.11,1.58-16.69-.19-1.88-.59-3.73-.72-5.61a10.09,10.09,0,0,1,.94-5.51c-1,5.95,2,11.85,2.06,17.88.1,8.56-4.22,16.35-4.4,24.91" style="fill:#fff"></path></g><g style="opacity:0.6000000000000001"><path d="M218.31,464.7c-2.41-13.54-1.09-26.15,2.18-39.51.12-.51.31-1.1.8-1.29s1.32.36,1.44,1a3.93,3.93,0,0,1-.37,1.95c-2.3,6.36-1.28,13.36-1.46,20.11-.15,5.89-1.52,11.93-2.59,17.72" style="fill:#fff"></path></g><g style="opacity:0.6000000000000001"><path d="M236,456.25a138.39,138.39,0,0,1-1.68-24.74,61.58,61.58,0,0,1,3.17,12.06,27.58,27.58,0,0,1-.86,12.35" style="fill:#fff"></path></g><path d="M239.66,438.63a11.75,11.75,0,0,1-1.36-.95c-.87-.63-2.12-1.54-3.73-2.57s-3.56-2.2-5.81-3.35a28.1,28.1,0,0,0-7.61-2.88,12.65,12.65,0,0,0-7.85,1.28,22.22,22.22,0,0,0-5.39,3.88c-1.39,1.31-2.43,2.46-3.16,3.24a11,11,0,0,1-1.16,1.19s.07-.13.24-.35l.78-1c.69-.82,1.69-2,3.06-3.36a21.78,21.78,0,0,1,5.43-4,12.82,12.82,0,0,1,8.13-1.36,27.47,27.47,0,0,1,7.73,3,56.94,56.94,0,0,1,5.8,3.46c1.59,1.07,2.82,2,3.65,2.7.42.34.73.61.94.8A1.56,1.56,0,0,1,239.66,438.63Z" style="fill:#263238"></path><path d="M236.78,450.91s-.07.11-.25.28-.43.41-.78.7a26.5,26.5,0,0,1-3.13,2.25A29.36,29.36,0,0,1,208,457.09a26.93,26.93,0,0,1-3.58-1.45c-.41-.19-.71-.38-.92-.49s-.31-.19-.31-.21a10.66,10.66,0,0,1,1.31.53,32.6,32.6,0,0,0,3.6,1.3,30.51,30.51,0,0,0,24.33-2.92,33.77,33.77,0,0,0,3.19-2.11A13.43,13.43,0,0,1,236.78,450.91Z" style="fill:#263238"></path><path d="M644.43,431.13s-1.84,3,.16,7.42,1.29,7.15,1.29,7.15l-5.39-2.13s-3.58,2.29.71,7.72l4.49-3.41a7.21,7.21,0,0,1-.49,6.72c-2.19,3.14,1.76,9.28,1.76,9.28s13.34-.22,23.36-9.33a32.58,32.58,0,0,0,6.93-8.44S668.43,428.34,644.43,431.13Z" style="fill:#F68A1E"></path><path d="M673.49,443.22a.41.41,0,0,0-.6-.14c-.28.24-.2,1-.11,1.25a.53.53,0,0,0,.66.37c.28-.14.28-.53.25-.83A1.31,1.31,0,0,0,673.49,443.22Z" style="fill:#263238"></path><path d="M643.55,448.25a10.28,10.28,0,0,1-1.5,1.07,5.25,5.25,0,0,1-1.6.93,5.45,5.45,0,0,1,1.42-1.2A3.63,3.63,0,0,1,643.55,448.25Z" style="fill:#263238"></path><path d="M643.15,447.35a10.37,10.37,0,0,1-3.66.53,5.39,5.39,0,0,1,1.81-.43A5.18,5.18,0,0,1,643.15,447.35Z" style="fill:#263238"></path><path d="M643.33,446.49a8.65,8.65,0,0,1-2-.52,8.19,8.19,0,0,1-1.38-.58c-.33-.19-.51-.37-.48-.4s.86.33,2,.67A5.61,5.61,0,0,1,643.33,446.49Z" style="fill:#263238"></path><g style="opacity:0.6000000000000001"><path d="M648.84,463.13a51.79,51.79,0,0,1-.64-10.25c.14-3.84.71-7.72,0-11.48-.26-1.27-.66-2.51-.87-3.78a6.88,6.88,0,0,1,.27-3.82c-.26,4.12,2.15,7.95,2.61,12.05.64,5.83-1.79,11.43-1.33,17.28" style="fill:#fff"></path></g><g style="opacity:0.6000000000000001"><path d="M659.67,460.47c-2.56-9.06-2.51-17.75-1.17-27.08,0-.36.14-.77.46-.93s.92.15,1,.59a2.64,2.64,0,0,1-.13,1.36c-1.13,4.49,0,9.19.36,13.81a78.53,78.53,0,0,1-.57,12.25" style="fill:#fff"></path></g><g style="opacity:0.6000000000000001"><path d="M671.13,453.53a95.08,95.08,0,0,1-2.8-16.76,44.32,44.32,0,0,1,3,8,18.84,18.84,0,0,1,.23,8.48" style="fill:#fff"></path></g><path d="M672.47,441.27a8.53,8.53,0,0,1-1-.56c-.64-.37-1.55-.91-2.72-1.5a44.2,44.2,0,0,0-4.18-1.89,19,19,0,0,0-5.38-1.46,8.66,8.66,0,0,0-5.27,1.4,15.43,15.43,0,0,0-3.42,3c-.85,1-1.48,1.84-1.93,2.42a8.44,8.44,0,0,1-.71.89s0-.1.14-.26.28-.43.47-.7a27.79,27.79,0,0,1,1.86-2.5,14.65,14.65,0,0,1,3.43-3.11,8.76,8.76,0,0,1,5.45-1.47,18.68,18.68,0,0,1,5.47,1.49,40.81,40.81,0,0,1,4.18,2c1.16.63,2.06,1.19,2.67,1.6.31.2.54.36.7.48A.94.94,0,0,1,672.47,441.27Z" style="fill:#263238"></path><path d="M671.33,449.83s0,.08-.15.2a5,5,0,0,1-.49.53,17.27,17.27,0,0,1-2,1.75,20.3,20.3,0,0,1-7.88,3.67,20.54,20.54,0,0,1-8.7,0,19.6,19.6,0,0,1-2.53-.75c-.3-.11-.52-.21-.67-.28a.85.85,0,0,1-.22-.12,7.19,7.19,0,0,1,.93.28,24.1,24.1,0,0,0,2.54.64,20.86,20.86,0,0,0,16.39-3.62,22.39,22.39,0,0,0,2-1.66A7.33,7.33,0,0,1,671.33,449.83Z" style="fill:#263238"></path><path d="M134.38,402.82s-3,2.09-3,7.06-1.83,7.28-1.83,7.28l-4.18-4.29s-4.33.63-2.6,7.58l5.67-1.31a7.44,7.44,0,0,1-3.32,6.12c-3.39,2-2.28,9.49-2.28,9.49s12.65,5.46,26,1.14a33.84,33.84,0,0,0,10.11-5S158.16,410.4,134.38,402.82Z" style="fill:#455a64"></path><path d="M156.61,426.57a.43.43,0,0,0-.51-.39c-.36.11-.59.83-.63,1.12s.17.65.46.64.49-.38.59-.68A1.38,1.38,0,0,0,156.61,426.57Z" style="fill:#263238"></path><path d="M126.27,418.57a9.5,9.5,0,0,1-1.87.38,5.31,5.31,0,0,1-1.9.2,5.3,5.3,0,0,1,1.84-.53A3.86,3.86,0,0,1,126.27,418.57Z" style="fill:#263238"></path><path d="M126.28,417.56a5.41,5.41,0,0,1-1.89-.37,5.63,5.63,0,0,1-1.79-.69,5.69,5.69,0,0,1,1.89.37A5.63,5.63,0,0,1,126.28,417.56Z" style="fill:#263238"></path><path d="M126.81,416.83a9.6,9.6,0,0,1-1.68-1.35,7.39,7.39,0,0,1-1-1.14c-.24-.32-.33-.56-.29-.58s.67.68,1.57,1.47A5.59,5.59,0,0,1,126.81,416.83Z" style="fill:#263238"></path><g style="opacity:0.6000000000000001"><path d="M124.93,434.84a54.33,54.33,0,0,1,3.75-9.93c1.77-3.55,4-7,4.84-10.83.3-1.3.45-2.64.79-3.93a7.15,7.15,0,0,1,1.88-3.48c-2,3.77-1.35,8.4-2.67,12.46-1.87,5.76-6.54,10-8.59,15.71" style="fill:#fff"></path></g><g style="opacity:0.6000000000000001"><path d="M136.26,436.94c1.44-9.63,5.19-17.79,10.4-26,.2-.32.46-.67.84-.69s.8.54.73,1a2.85,2.85,0,0,1-.69,1.23c-3,3.74-3.89,8.66-5.53,13.15-1.44,3.92-3.73,7.66-5.75,11.3" style="fill:#fff"></path></g><g style="opacity:0.6000000000000001"><path d="M150,435.27a99.33,99.33,0,0,1,4.48-17,44.61,44.61,0,0,1-.6,8.8,19.59,19.59,0,0,1-3.38,8.09" style="fill:#fff"></path></g><path d="M156.48,424.29a7.2,7.2,0,0,1-.7-1c-.44-.62-1.08-1.51-1.92-2.56a44.38,44.38,0,0,0-3.14-3.56,19.87,19.87,0,0,0-4.45-3.66,9,9,0,0,0-5.55-.92,16,16,0,0,0-4.5,1.38c-1.23.56-2.18,1.1-2.85,1.46a9.88,9.88,0,0,1-1.05.54s.08-.08.25-.19l.73-.47c.65-.39,1.59-1,2.82-1.56a15.5,15.5,0,0,1,4.55-1.47,9.16,9.16,0,0,1,5.76.93A19.55,19.55,0,0,1,151,417a42.86,42.86,0,0,1,3.1,3.63c.82,1.08,1.43,2,1.84,2.64q.3.48.45.75A1.2,1.2,0,0,1,156.48,424.29Z" style="fill:#263238"></path><path d="M151.76,431.88s-.07.05-.23.12-.38.18-.68.3a19.72,19.72,0,0,1-2.61.8,20.84,20.84,0,0,1-17.17-3.59,19.46,19.46,0,0,1-2.07-1.79c-.23-.22-.4-.42-.51-.54s-.17-.2-.16-.21a7.29,7.29,0,0,1,.76.65,23.9,23.9,0,0,0,2.12,1.69,21.55,21.55,0,0,0,17,3.55,23.81,23.81,0,0,0,2.62-.69A5.63,5.63,0,0,1,151.76,431.88Z" style="fill:#263238"></path></g><g id="freepik--Sun--inject-21"><circle cx="616.79" cy="102.09" r="21.94" transform="translate(108.47 466.04) rotate(-45)" style="fill:#F68A1E"></circle><path d="M613.67,151.14a88.17,88.17,0,0,1-.23-9,88.17,88.17,0,0,1,.23-9.05,88.17,88.17,0,0,1,.23,9.05A88.17,88.17,0,0,1,613.67,151.14Z" style="fill:#F68A1E"></path><path d="M601,127.94c.11.07-1.95,3.85-4.61,8.44s-4.9,8.28-5,8.21,2-3.84,4.61-8.44S600.92,127.88,601,127.94Z" style="fill:#F68A1E"></path><path d="M588.06,119.87a49.71,49.71,0,0,1-5.13,4.36,50,50,0,0,1-5.41,4,49,49,0,0,1,5.13-4.37A48,48,0,0,1,588.06,119.87Z" style="fill:#F68A1E"></path><path d="M635.55,142.23A14.24,14.24,0,0,1,635,140c-.31-1.38-.76-3.28-1.32-5.37s-1.13-4-1.55-5.31a11.67,11.67,0,0,1-.61-2.21,10.25,10.25,0,0,1,.92,2.11c.5,1.33,1.12,3.19,1.69,5.29s1,4,1.19,5.43A9.92,9.92,0,0,1,635.55,142.23Z" style="fill:#F68A1E"></path><path d="M657.8,126.44a79.53,79.53,0,0,1-6.48-5.36,76.74,76.74,0,0,1-6.18-5.71,76.58,76.58,0,0,1,6.48,5.36A74.64,74.64,0,0,1,657.8,126.44Z" style="fill:#F68A1E"></path><path d="M666.32,104.74a17.44,17.44,0,0,1-2.64-.38c-1.63-.27-3.87-.62-6.37-.9s-4.76-.46-6.41-.56a18.5,18.5,0,0,1-2.66-.23,13.32,13.32,0,0,1,2.68-.1c1.65,0,3.94.14,6.44.43s4.76.69,6.38,1A12.52,12.52,0,0,1,666.32,104.74Z" style="fill:#F68A1E"></path><path d="M666.35,83.41c0,.12-4.72,1.38-10.6,2.82S645.06,88.73,645,88.6s4.72-1.39,10.61-2.82S666.32,83.28,666.35,83.41Z" style="fill:#F68A1E"></path><path d="M641.56,58.55c.11.07-2.16,3.69-5.07,8.09s-5.35,7.92-5.46,7.85,2.17-3.7,5.08-8.1S641.46,58.48,641.56,58.55Z" style="fill:#F68A1E"></path><path d="M617,53.36a24.1,24.1,0,0,1,0,3c0,1.86-.07,4.42-.06,7.25s0,5.4.07,7.26a23.2,23.2,0,0,1,0,3,17.66,17.66,0,0,1-.3-3c-.12-1.85-.21-4.43-.22-7.27s.09-5.41.2-7.26A16.3,16.3,0,0,1,617,53.36Z" style="fill:#F68A1E"></path><path d="M598.34,76.56c-.11.06-2.42-3.52-5.16-8a95.26,95.26,0,0,1-4.77-8.25c.11-.06,2.42,3.52,5.16,8S598.45,76.49,598.34,76.56Z" style="fill:#F68A1E"></path><path d="M587.21,86a10.91,10.91,0,0,1-2.33-.37c-1.43-.3-3.39-.78-5.52-1.41s-4-1.29-5.4-1.81a11.24,11.24,0,0,1-2.16-1,13.83,13.83,0,0,1,2.27.65c1.38.44,3.3,1,5.42,1.68S583.55,85,585,85.33A12.46,12.46,0,0,1,587.21,86Z" style="fill:#F68A1E"></path><path d="M582.35,102.87a53.43,53.43,0,0,1-7,.9,52.55,52.55,0,0,1-7.05.45,54.38,54.38,0,0,1,7-.91A53.52,53.52,0,0,1,582.35,102.87Z" style="fill:#F68A1E"></path></g><g id="freepik--Birds--inject-21"><path d="M206.43,132.6a23.22,23.22,0,0,0-20.08,4.34,23.85,23.85,0,0,0-8,12.28,25.54,25.54,0,0,0-9.45-11,24.93,24.93,0,0,0-20.35-2.88,16.36,16.36,0,0,0-2.17.78,3.76,3.76,0,0,0-.72.35c0,.05,1-.39,3-.9a25.66,25.66,0,0,1,8.32-.76,24.43,24.43,0,0,1,11.66,3.88,25.18,25.18,0,0,1,9.54,11.53l.35.85.23-.9,0-.14a23.45,23.45,0,0,1,8-12.66A22.56,22.56,0,0,1,198,132.5a23.85,23.85,0,0,1,8.38.33c2,.43,3,.85,3,.79a4.25,4.25,0,0,0-.74-.33A16.19,16.19,0,0,0,206.43,132.6Z" style="fill:#263238"></path><path d="M292.77,87.44a8.06,8.06,0,0,0-1.22-.41,12.73,12.73,0,0,0-11.13,2.34,13.21,13.21,0,0,0-4.36,6.46,14.25,14.25,0,0,0-5.1-5.76,13.5,13.5,0,0,0-6.63-2.1,13.32,13.32,0,0,0-4.65.57,10.8,10.8,0,0,0-1.19.45c-.26.13-.4.2-.39.22s.59-.18,1.64-.44a14.39,14.39,0,0,1,4.56-.37,13.29,13.29,0,0,1,6.35,2.14,13.75,13.75,0,0,1,5.19,6.29l.35.85.23-.9,0-.08a12.84,12.84,0,0,1,4.33-6.89,12.32,12.32,0,0,1,6.14-2.68,13.26,13.26,0,0,1,4.59.13c1.07.22,1.64.44,1.66.39S293,87.56,292.77,87.44Z" style="fill:#263238"></path><path d="M236.6,70.5a34.1,34.1,0,0,0-4.12,5.24,38,38,0,0,0-6,18.38,34.14,34.14,0,0,0-9.29-16.45A31.56,31.56,0,0,0,212,73.55c-.65-.43-1.2-.7-1.55-.9a2.12,2.12,0,0,0-.56-.27c0,.05.71.49,2,1.37a35.22,35.22,0,0,1,5,4.23,34.77,34.77,0,0,1,5.76,7.77,34,34,0,0,1,3.77,11.19l.61,0v-.26A38.69,38.69,0,0,1,232.84,76a39.67,39.67,0,0,1,3.93-5.31,23.65,23.65,0,0,0,1.61-1.83,2.67,2.67,0,0,0-.48.4C237.6,69.52,237.13,69.92,236.6,70.5Z" style="fill:#263238"></path></g><g id="freepik--Character--inject-21"><path d="M288.52,205.35a6.74,6.74,0,0,0-3.28-2.27l-.71,1.32a.67.67,0,0,0-.08,1,.66.66,0,0,0,.95,0l0,1.21a1.27,1.27,0,0,0,1.07-.19,4.07,4.07,0,0,0-.35,2,.6.6,0,0,0,.26.53c.25.12.51-.12.69-.32l1.4-1.63a1.4,1.4,0,0,0,.43-.81A1.29,1.29,0,0,0,288.52,205.35Z" style="fill:#ffbe9d"></path><path d="M114.8,287s10.1,23.94,21,36.91,83.9,28.78,107.41,34.86,232.65,45.8,258.18,46.21,42.15.81,53.91,0,41.28-30.54,41.28-30.54l-374-79.12Z" style="fill:#455a64"></path><path d="M114.8,287s9.6-16.54,43-33.56c8.46-4.31,78.52-37.79,94.48-40.4,0,0,2.93-.32,1.63,4.89a10.14,10.14,0,0,0,5,11.59c3.59,2.08,8.85,3.36,18.62-2.83l22.79,14.55,73.2,39.25,141.73,28,17.92,31.27s56.38,19.15,62.55,26.07c5.82,6.52,5.22,13-25.73,11.4s-132.61-25.74-132.61-25.74L176.7,303.9C154,300.54,133.31,295,114.8,287Z" style="fill:#F68A1E"></path><g style="opacity:0.30000000000000004"><path d="M336.05,312.06a270.78,270.78,0,0,0,102.15,5.35c20-2.79,41.11-9.32,61.23-7.38l-36.2-7Z"></path></g><path d="M344.51,265.23s-66.41,14.06-60.73,26.62,54.31,22.7,79.44,23.92S465.76,304,465.76,304L518,313.35s1.24-11.77,7.73-14.2,13,2,13.78-3.87-5.68-10.72-28.78-13.56-42.17-2.83-52.69-1.21c-15.81,2.43-67.69,0-81.47-6.08S355.33,262.7,344.51,265.23Z" style="fill:#263238"></path><path d="M463.23,284.72a3.63,3.63,0,0,1-.6.3l-1.76.76c-1.53.65-3.77,1.54-6.56,2.59a219.13,219.13,0,0,1-22.2,6.95,217.07,217.07,0,0,1-22.82,4.55c-3,.42-5.34.72-7,.87l-1.9.18a2.83,2.83,0,0,1-.67,0,3,3,0,0,1,.65-.13l1.9-.28c1.65-.22,4-.56,7-1,5.87-.93,13.95-2.45,22.74-4.69s16.61-4.79,22.2-6.8c2.8-1,5.06-1.83,6.61-2.43l1.8-.67A2.69,2.69,0,0,1,463.23,284.72Z" style="fill:#455a64"></path><path d="M536.24,291.85a4.21,4.21,0,0,1-.76.1l-2.17.19c-1.89.14-4.62.38-8,.71-6.75.65-16,1.77-26.22,3.55s-19.31,3.89-25.87,5.58c-3.28.84-5.93,1.54-7.76,2l-2.1.56a3.22,3.22,0,0,1-.75.16,6.75,6.75,0,0,1,.72-.26l2.08-.66c1.81-.56,4.44-1.32,7.72-2.21,6.54-1.77,15.67-3.94,25.87-5.73s19.51-2.85,26.27-3.41c3.38-.28,6.12-.46,8-.54l2.18-.09A3.65,3.65,0,0,1,536.24,291.85Z" style="fill:#455a64"></path><path d="M506.27,343.93a3.22,3.22,0,0,1-.71-.18l-2-.6c-1.76-.52-4.28-1.36-7.37-2.47s-6.72-2.54-10.71-4.25-8.3-3.77-12.74-6.09-8.56-4.74-12.25-7-6.93-4.48-9.6-6.4-4.79-3.5-6.22-4.65L443,310.94c-.38-.3-.57-.47-.55-.49a4.79,4.79,0,0,1,.61.41l1.71,1.25c1.46,1.1,3.61,2.65,6.31,4.51s5.95,4,9.63,6.29,7.82,4.64,12.24,7,8.73,4.35,12.69,6.11,7.58,3.2,10.65,4.35,5.57,2,7.3,2.62l2,.69A3.76,3.76,0,0,1,506.27,343.93Z" style="fill:#263238"></path><path d="M326.43,220.62l15.22,8.21s.13,6-4.88,6.24l-14-8.41Z" style="fill:#263238"></path><g style="opacity:0.30000000000000004"><path d="M385.55,282.68c-20-5.73-40.33-11.49-61.17-12.25-1.79-.06-3.85,0-5,1.41-.9,1.09-.93,2.63-.91,4,.22,14.79-.21,33.4,0,48.19l7.48,1.51c1.83-6.67,3.67-13.37,4.42-20.25s.37-14-2.13-20.43a94.24,94.24,0,0,0,57.18,1.71c1.11-.32,2.47-1,2.35-2.16C387.68,283.44,386.53,283,385.55,282.68Z"></path></g><path d="M525.25,326.09c.12-.07,4.1,6.62,8.89,14.94s8.56,15.13,8.43,15.2-4.1-6.61-8.88-14.94S525.13,326.17,525.25,326.09Z" style="fill:#263238"></path><path d="M277.5,226.65l17.89-19.27a19.25,19.25,0,0,1,16.14,2.48c7.86,5.38,6.41,5.41,11.79,8.9l3.11,1.86-2.91,6.48s-6.41-3.79-10.54.76-12.69,13.34-12.69,13.34Z" style="fill:#455a64"></path><path d="M283.9,200.38a3.82,3.82,0,0,0-.47,3.37l11.72,7.73s2.84.68,4.06-.68,0-4.13,0-4.13l-9.42-7.26A4,4,0,0,0,283.9,200.38Z" style="fill:#263238"></path><path d="M365.13,242.72s-.09-.21-.24-.62a8.45,8.45,0,0,0-.82-1.77,4,4,0,0,0-.95-1,2.88,2.88,0,0,0-1.58-.51,1.8,1.8,0,0,0-1.62.84,1.58,1.58,0,0,0,.61,1.88.87.87,0,0,0,1,0,1.69,1.69,0,0,0,.58-1,7.31,7.31,0,0,0-.08-2.75,3,3,0,0,0-1.74-2.22,2.25,2.25,0,0,0-1.49-.08,1.3,1.3,0,0,0-.93,1.09,1.65,1.65,0,0,0,.52,1.42,1,1,0,0,0,1.38-.19,2.6,2.6,0,0,0-.16-3.25,3.07,3.07,0,0,0-3.32-1.16,4.92,4.92,0,0,0-1.73,1c-.48.41-1,1.08-.65,1.55l-.06-.05c.3.2.83-.22,1.14-.62a4.33,4.33,0,0,0,.76-1.46,2.15,2.15,0,0,0,0-1.58,2.67,2.67,0,0,0-1.16-1.17,2.37,2.37,0,0,0-3.07.54,4.11,4.11,0,0,0-.7,1.65c-.12.56-.07,1.31.36,1.45h-.08c1-.06,1.49-1.21,1.55-2.22a3.41,3.41,0,0,0-1-2.84,3.17,3.17,0,0,0-3-.09,4,4,0,0,0-1.38.87,1,1,0,0,0-.38,1.25l-.09-.08a.74.74,0,0,0,1-.25,2.66,2.66,0,0,0,.43-1.35,2.27,2.27,0,0,0-1.28-2.39,4.38,4.38,0,0,0-3-.28,2.65,2.65,0,0,0-1.26.76,1,1,0,0,0-.28,1.2.88.88,0,0,0,1.17.24,1.77,1.77,0,0,0,1-1,2.78,2.78,0,0,0-.76-2.84,2.41,2.41,0,0,0-1.35-.69,2.68,2.68,0,0,0-1.5.37,4.46,4.46,0,0,0-1.26,1c-.33.38-.61,1-.35,1.21l-.09-.06c.55.2,1.21-.28,1.56-.9a2.25,2.25,0,0,0,.26-2.05,2.19,2.19,0,0,0-2.67-1.26,3.43,3.43,0,0,0-1.31,1c-.35.42-.6,1-.28,1.2l-.05,0c.41.16.8-.18,1-.66a4.25,4.25,0,0,0,.42-1.54,3,3,0,0,0-.19-1.54,2.71,2.71,0,0,0-1-1.16,2,2,0,0,0-2.72.24,4.24,4.24,0,0,0-.83,1.3c-.2.47-.23,1,.12,1a1.1,1.1,0,0,0,1.06-.66,2.92,2.92,0,0,0,.28-1.45,3.06,3.06,0,0,0-1.24-2.56,2,2,0,0,0-1.38-.13,5.11,5.11,0,0,0-1.39.53,4.34,4.34,0,0,0-1.16.9,1.53,1.53,0,0,0-.34.56.38.38,0,0,0,.16.42l0,0c.36.2.7,0,.9-.45a3.53,3.53,0,0,0,.31-1.38,2.89,2.89,0,0,0-.89-2.5,2.39,2.39,0,0,0-2.48.44,4,4,0,0,0-1,.95c-.27.36-.41.82-.21,1l-.07-.05a.6.6,0,0,0,.67-.06,1.66,1.66,0,0,0,.41-.71,3.35,3.35,0,0,0,0-1.75,2,2,0,0,0-1-1.27,3.29,3.29,0,0,0-1.66-.4,3,3,0,0,0-2.81,1.43.8.8,0,0,0,.57,1.09,1.16,1.16,0,0,0,1.28-.46,2.49,2.49,0,0,0-.34-2.85,3.48,3.48,0,0,0-2.61-1.3,4.15,4.15,0,0,0-3.35,2.35,1.07,1.07,0,0,0,.1,1.16l-.06,0c.34.17.67-.19.86-.58a4,4,0,0,0,.37-1.26,2.92,2.92,0,0,0-.52-2.37,2.84,2.84,0,0,0-4.08-.16,1.23,1.23,0,0,0-.12,1.75,1.59,1.59,0,0,0,1.75.06,1.5,1.5,0,0,0,.64-1.48,2.58,2.58,0,0,0-.64-1.43,2.88,2.88,0,0,0-1.17-.81,8.65,8.65,0,0,0-1.21-.41,11.58,11.58,0,0,0-2-.37,5.34,5.34,0,0,0-1.23,0c-.27,0-.41.08-.41.07a1.5,1.5,0,0,1,.4-.12,5,5,0,0,1,1.25-.06,11.44,11.44,0,0,1,2,.33,10.87,10.87,0,0,1,1.24.39,3.14,3.14,0,0,1,1.24.85,2.83,2.83,0,0,1,.71,1.53,1.74,1.74,0,0,1-.73,1.7,1.82,1.82,0,0,1-2-.07,1.21,1.21,0,0,1-.41-1.05,1.89,1.89,0,0,1,.49-1.07,3.12,3.12,0,0,1,4.51.13,3.21,3.21,0,0,1,.61,2.62,4.27,4.27,0,0,1-.39,1.37,1.79,1.79,0,0,1-.46.61.8.8,0,0,1-.84.14l0,0,0,0a1.45,1.45,0,0,1-.16-1.53,3.77,3.77,0,0,1,.86-1.26,4,4,0,0,1,2.81-1.34,3.88,3.88,0,0,1,2.92,1.43,2.89,2.89,0,0,1,.37,3.33,1.6,1.6,0,0,1-1.73.63,1.23,1.23,0,0,1-.8-.61,1.25,1.25,0,0,1-.05-1,2.56,2.56,0,0,1,1.36-1.33,4.82,4.82,0,0,1,1.84-.39,3.69,3.69,0,0,1,1.88.44,2.92,2.92,0,0,1,.78.62,2.37,2.37,0,0,1,.47.92,3.67,3.67,0,0,1,0,2,1.84,1.84,0,0,1-.55.93,1.06,1.06,0,0,1-1.14.13l-.05,0,0,0a.94.94,0,0,1-.2-.89,2.41,2.41,0,0,1,.35-.72,4.43,4.43,0,0,1,1.09-1.07,4.1,4.1,0,0,1,1.4-.66,2,2,0,0,1,1.61.2,2.38,2.38,0,0,1,.92,1.34,5,5,0,0,1,.19,1.58,4,4,0,0,1-.35,1.58,1.48,1.48,0,0,1-.6.67,1,1,0,0,1-1,0h0a.9.9,0,0,1-.37-.93,2.22,2.22,0,0,1,.44-.77,4.85,4.85,0,0,1,1.3-1,5.13,5.13,0,0,1,1.54-.59,2.47,2.47,0,0,1,1.72.19,3.55,3.55,0,0,1,1.5,3,3.52,3.52,0,0,1-.35,1.7,1.58,1.58,0,0,1-1.57.92.77.77,0,0,1-.52-.26.91.91,0,0,1-.19-.53,2.21,2.21,0,0,1,.18-.91,4.78,4.78,0,0,1,.94-1.48,3.65,3.65,0,0,1,.72-.56,2.17,2.17,0,0,1,.91-.24,3,3,0,0,1,1.74.49,3.25,3.25,0,0,1,1.19,1.38,3.73,3.73,0,0,1,.23,1.8,5.08,5.08,0,0,1-.48,1.73,2.1,2.1,0,0,1-.61.76,1.16,1.16,0,0,1-1,.15h-.05a.87.87,0,0,1-.38-.52,1.08,1.08,0,0,1,0-.57,2.58,2.58,0,0,1,.48-.88,3.94,3.94,0,0,1,1.52-1.18,2.71,2.71,0,0,1,3.35,1.54,2.77,2.77,0,0,1-.29,2.52,2.89,2.89,0,0,1-.88.93,1.58,1.58,0,0,1-1.31.19l-.05,0,0-.05a1,1,0,0,1-.18-1.08,2.67,2.67,0,0,1,.49-.82,5,5,0,0,1,1.42-1.16,3.14,3.14,0,0,1,1.8-.42,2.9,2.9,0,0,1,1.65.83,3.29,3.29,0,0,1,.88,3.39,2.28,2.28,0,0,1-1.28,1.32,1.82,1.82,0,0,1-1,.12,1.26,1.26,0,0,1-1-1.57,2,2,0,0,1,.47-.81,3.1,3.1,0,0,1,1.52-.91,4.77,4.77,0,0,1,3.34.33,2.93,2.93,0,0,1,1.25,1.19,3,3,0,0,1,.3,1.68,3.14,3.14,0,0,1-.53,1.6,1.3,1.3,0,0,1-.76.54,1.31,1.31,0,0,1-.92-.15l-.06,0,0-.06a1.26,1.26,0,0,1-.09-1.05,2.22,2.22,0,0,1,.54-.81,4.7,4.7,0,0,1,1.55-1,5,5,0,0,1,1.76-.37,2.73,2.73,0,0,1,1.75.54,4.18,4.18,0,0,1,.67,4.92,1.9,1.9,0,0,1-1.5,1H351a1.14,1.14,0,0,1-.7-.93,3.28,3.28,0,0,1,0-1,4.58,4.58,0,0,1,.79-1.84,2.46,2.46,0,0,1,1.72-1,3.18,3.18,0,0,1,1.92.36,3.06,3.06,0,0,1,1.34,1.37,2.55,2.55,0,0,1,.06,1.88,4.63,4.63,0,0,1-.84,1.6,3.09,3.09,0,0,1-.67.63.93.93,0,0,1-1,.06l0,0,0,0a1.16,1.16,0,0,1,0-1.22,2.87,2.87,0,0,1,.72-.86,5.22,5.22,0,0,1,1.87-1,3.45,3.45,0,0,1,3.74,1.3,3.54,3.54,0,0,1,.72,1.86,2.49,2.49,0,0,1-.6,1.85,1.34,1.34,0,0,1-1.85.22,1.92,1.92,0,0,1-.63-1.73,1.63,1.63,0,0,1,1.15-1.34,2.48,2.48,0,0,1,1.7.1,3.27,3.27,0,0,1,1.9,2.43,7.52,7.52,0,0,1,.06,2.87,1.89,1.89,0,0,1-.69,1.19,1.17,1.17,0,0,1-.66.23,1.3,1.3,0,0,1-.64-.2,1.79,1.79,0,0,1-.66-2.17,2,2,0,0,1,1.8-.93,3,3,0,0,1,1.67.57,3.92,3.92,0,0,1,1,1.1,8.58,8.58,0,0,1,.77,1.81C365.08,242.5,365.13,242.72,365.13,242.72Z" style="fill:#263238"></path><path d="M406.86,257.91c.13,0-.16.83-1,1.35s-1.64.45-1.64.32.67-.31,1.36-.76S406.73,257.83,406.86,257.91Z" style="fill:#263238"></path><path d="M304.34,208.8a3.67,3.67,0,0,1-.27,1c-.21.66-.57,1.58-1.06,2.7a38,38,0,0,1-11.86,14.83,25.24,25.24,0,0,1-2.4,1.63,4.06,4.06,0,0,1-.94.5c-.05-.08,1.23-.89,3.12-2.42a44.69,44.69,0,0,0,6.68-6.7,44.12,44.12,0,0,0,5.06-8C303.74,210.19,304.26,208.77,304.34,208.8Z" style="fill:#263238"></path><path d="M317.52,215.33a6.43,6.43,0,0,1-.36,1.17,28.25,28.25,0,0,1-1.3,3.07,36.49,36.49,0,0,1-2.48,4.29,40.8,40.8,0,0,1-3.79,4.75,39.67,39.67,0,0,1-4.5,4.09,34.42,34.42,0,0,1-4.12,2.74,27.9,27.9,0,0,1-3,1.51,5.3,5.3,0,0,1-1.15.42c0-.09,1.55-.78,3.94-2.24a42.7,42.7,0,0,0,4-2.81,40.69,40.69,0,0,0,8.18-8.73,42.59,42.59,0,0,0,2.55-4.19C316.83,216.93,317.43,215.29,317.52,215.33Z" style="fill:#263238"></path><g style="opacity:0.30000000000000004"><path d="M578.42,372.07a3,3,0,0,0-.06-3.48,7.84,7.84,0,0,0-2.91-2.3c-8-4.39-16.86-7-25.52-9.9-2.9-1-9-2.89-9-2.89l-5.1-8.94c10.45,3.73,21.93,7.92,32.17,12.23,4.72,2,9.75,4.43,12,9a6.19,6.19,0,0,1,.73,3.78,3.32,3.32,0,0,1-2.47,2.73"></path></g><path d="M552.48,369.79a5.52,5.52,0,0,1,.72,0l2,.21,7.51.88,11.12,1.35a13,13,0,0,0,3.16.21,2.06,2.06,0,0,0,1.29-.67,2,2,0,0,0,.38-1.42,4.11,4.11,0,0,0-1.79-2.66,21.74,21.74,0,0,0-3-2,48.84,48.84,0,0,0-6.45-2.88l-6.2-2.32c-4-1.45-7.54-2.7-10.56-3.73l-7.16-2.41-1.94-.66a4.84,4.84,0,0,1-.67-.26,3.61,3.61,0,0,1,.7.16l2,.57c1.72.5,4.18,1.26,7.22,2.25s6.64,2.21,10.61,3.63c2,.72,4.06,1.48,6.21,2.29a48.46,48.46,0,0,1,6.52,2.91,21.68,21.68,0,0,1,3,2,4.57,4.57,0,0,1,2,3A2.31,2.31,0,0,1,577.1,373a13.56,13.56,0,0,1-3.29-.22l-11.11-1.47-7.48-1-2-.3A3.49,3.49,0,0,1,552.48,369.79Z" style="fill:#263238"></path><g style="opacity:0.30000000000000004"><path d="M379.12,334.84c22.69,3,45.76-.42,68.6,1.09a159.84,159.84,0,0,1,64.89,18.62s-38.19-10.67-56.29-11.76S379.12,334.84,379.12,334.84Z"></path></g><path d="M176.68,244.33c-.33.15,10.14,9.11,10.14,9.11L206,246.58l-9.31-11.51Z" style="fill:#fff"></path><polygon points="193.02 251.34 229.39 280.1 253.51 278.78 215.21 243.99 193.02 251.34" style="fill:#fff"></polygon><path d="M273.72,232.14a1.36,1.36,0,0,1-.38.07l-1.11.14-4.28.51c-1.86.17-4.12.53-6.75.92l-4.21.63-4.69.85c-6.59,1.15-14.36,2.91-22.93,5.06s-17.89,5-27.56,8.22-18.72,6.85-26.87,10.29l-5.89,2.64-2.83,1.26-2.7,1.31-5.12,2.48c-1.63.81-3.17,1.66-4.65,2.43l-4.22,2.23-3.68,2.12-3.22,1.84c-1,.57-1.84,1.15-2.64,1.64l-3.66,2.28-1,.58a1.48,1.48,0,0,1-.34.18l.31-.22.93-.63,3.6-2.37c.79-.5,1.65-1.09,2.62-1.68s2.05-1.2,3.2-1.88l3.67-2.15,4.21-2.27c1.48-.78,3-1.64,4.64-2.46l5.12-2.51,2.69-1.32,2.83-1.28,5.89-2.66c8.15-3.47,17.22-7,26.89-10.34s19-6,27.61-8.2,16.38-3.84,23-4.95A198.18,198.18,0,0,1,273.72,232.14Z" style="fill:#263238"></path><polygon points="227.57 280.2 268.63 309.59 305.13 320.45 248.26 279.06 227.57 280.2" style="fill:#fff"></polygon><g style="opacity:0.30000000000000004"><path d="M147,284.64l.54,0-.24,0Z"></path></g><g style="opacity:0.30000000000000004"><path d="M147.52,284.61a279.87,279.87,0,0,0,102.54,0c5.81-1.08,11.88-2.5,16.26-6.48C226.93,280.12,186.91,282.6,147.52,284.61Z"></path></g><path d="M555,373.12l-1-.53-2.9-1.6L549,369.8l-2.62-1.33c-1.89-1-4.07-2.1-6.59-3.22a231.91,231.91,0,0,0-44.14-15.07c-9.59-2.31-20.21-4.34-31.68-6.07s-23.8-3.11-36.78-4.39-26.64-2.42-40.76-3.9-28.73-3.3-43.55-6.05C313.2,324.21,286,314.84,261,307.39a576,576,0,0,0-67.3-16.47c-9.71-1.73-18.56-2.92-26.36-3.68-3.89-.44-7.54-.62-10.88-.87s-6.42-.31-9.18-.26h-3.9c-1.22,0-2.37.09-3.43.13-2.12.09-3.92.15-5.36.32l-3.29.31c-.74.07-1.12.09-1.12.09l1.12-.14,3.28-.36c1.45-.2,3.24-.27,5.37-.38,1.06,0,2.2-.13,3.42-.15l3.91,0c2.76-.07,5.83.12,9.19.21s7,.4,10.9.83c7.81.73,16.67,1.9,26.4,3.6a571.17,571.17,0,0,1,67.36,16.38c25,7.43,52.24,16.78,81.86,22.33,14.8,2.75,29.39,4.58,43.51,6.06s27.77,2.64,40.76,3.93,25.31,2.67,36.79,4.43,22.11,3.81,31.7,6.14a229.64,229.64,0,0,1,44.15,15.24c2.51,1.14,4.68,2.29,6.57,3.27l2.61,1.36,2.11,1.2,2.87,1.65C554.69,372.91,555,373.12,555,373.12Z" style="fill:#263238"></path><path d="M272.37,278.12c0,.14-28.06,1.79-62.68,3.67S147,285.09,147,285s28.06-1.79,62.69-3.68S272.37,278,272.37,278.12Z" style="fill:#263238"></path><path d="M367.28,258.1s-49.24-3.58-54.12-2.52-12.74,5.94-13.38,15.07,9.36,50.92,9.36,50.92l14.25,3.73s4.1-24,3-32.22A84,84,0,0,0,322.28,277s16.34,6,23.35,7.26,26.68,5.16,39.95,2.68,16.08-8.24,16.08-8.24l-3.61-22.08Z" style="fill:#ffbe9d"></path><path d="M710.42,297.64s-.14.07-.44.18a3.29,3.29,0,0,1-1.42.05,5.89,5.89,0,0,1-3.9-3.57,15.19,15.19,0,0,1-.86-3.83,17.48,17.48,0,0,0-1-4.5,5.34,5.34,0,0,0-3.9-3.09,3.24,3.24,0,0,0-1.35.09,2.68,2.68,0,0,0-1.14.75c-.63.72-.85,1.78-1.62,2.62a2.2,2.2,0,0,1-1.58.65,2.48,2.48,0,0,1-1.53-.81,33.55,33.55,0,0,1-2.07-2.68,4.21,4.21,0,0,0-2.67-1.87,4.86,4.86,0,0,0-3.25,1,14.57,14.57,0,0,0-2.7,2.52,13.23,13.23,0,0,1-2.93,2.64,4.78,4.78,0,0,1-4,.86,3.56,3.56,0,0,1-1.73-1.27,9,9,0,0,1-1-1.87c-.28-.64-.53-1.29-.84-1.9a3.22,3.22,0,0,0-1.28-1.46,2.12,2.12,0,0,0-1.84-.07,3.32,3.32,0,0,0-1.33,1.48c-.66,1.25-1,2.68-1.62,4.06a8.78,8.78,0,0,1-1.07,2,2.87,2.87,0,0,1-2.05,1.24,3.07,3.07,0,0,1-2.27-.8,18,18,0,0,1-1.6-1.69,5.66,5.66,0,0,0-1.72-1.38,4.11,4.11,0,0,0-2.14-.34,8.39,8.39,0,0,0-4.08,1.91,19.8,19.8,0,0,0-3.32,3.34l-41.46,50.95-12.62,15.4c-1.48,1.8-2.64,3.2-3.45,4.17l-.9,1.08c-.21.24-.33.35-.33.35s.09-.14.29-.39.49-.63.86-1.11l3.38-4.23,12.48-15.5c10.59-13.08,25.2-31.12,41.35-51a19.71,19.71,0,0,1,3.4-3.43,11.67,11.67,0,0,1,2-1.3,6.66,6.66,0,0,1,2.32-.71,4.54,4.54,0,0,1,2.41.38,6.32,6.32,0,0,1,1.88,1.5,15.24,15.24,0,0,0,1.55,1.64,2.57,2.57,0,0,0,1.9.7,2.39,2.39,0,0,0,1.68-1,8.59,8.59,0,0,0,1-1.92c.55-1.35.94-2.78,1.64-4.11a3.86,3.86,0,0,1,1.55-1.68,2.56,2.56,0,0,1,2.29.08,3.67,3.67,0,0,1,1.48,1.67c.33.64.58,1.3.85,1.93.52,1.25,1.22,2.5,2.46,2.88a4.32,4.32,0,0,0,3.58-.79,12.81,12.81,0,0,0,2.84-2.55,14.93,14.93,0,0,1,2.8-2.59,5.21,5.21,0,0,1,3.54-1.09,3.36,3.36,0,0,1,1.7.74,7.54,7.54,0,0,1,1.24,1.29,32.5,32.5,0,0,0,2,2.66,2.06,2.06,0,0,0,1.28.7,1.77,1.77,0,0,0,1.29-.53c.68-.71.92-1.78,1.61-2.59a3.07,3.07,0,0,1,1.31-.85,3.47,3.47,0,0,1,1.5-.08,5.17,5.17,0,0,1,2.54,1.19,5.27,5.27,0,0,1,1.57,2.11,17.23,17.23,0,0,1,1,4.57,14.88,14.88,0,0,0,.8,3.79,5.84,5.84,0,0,0,3.73,3.55A3.45,3.45,0,0,0,710.42,297.64Z" style="fill:#263238"></path><path d="M370.7,251.47,369,257.91s14.46-2.28,22.48,5.75,4,20.12,4,20.12,10.27-4.18,12.6-9.28c3.39-7.42,0-17.42,0-17.42l-26.42-10Z" style="fill:#455a64"></path><path d="M414.39,155.48c.15.7.29,1.4.44,2.1l-3.12-14.84c2-3,6.37-3.8,9.76-2.5s5.89,4.24,7.73,7.37,3.13,6.55,5,9.67,4.41,6,7.82,7.26c2.32.84,4.87.85,7.24,1.58s4.71,2.57,4.76,5c0,2-1.41,3.76-1.32,5.73s1.66,3.56,2.36,5.42c1.2,3.22-.58,7.08-3.58,8.75-3.26,1.81-7.44,1.26-10.72-.5s-7.87.5-10.32-2.31C423.15,179.91,418.27,165.85,414.39,155.48Z" style="fill:#263238"></path><path d="M400,133.49c4.29-.63,8,1.1,11.57,3.59a22.06,22.06,0,0,1,8.16,23.74A17,17,0,0,1,411.11,171c-5.63,2.7-12.73,1.56-17.62-2.32a21.46,21.46,0,0,1-7.71-16.4,20.62,20.62,0,0,1,3.54-12.19A15.69,15.69,0,0,1,400,133.49" style="fill:#263238"></path><path d="M411.8,148.31c-.58-1.65-.3-3.47-.51-5.21-.46-3.84-3.47-7-7-8.54-3.28-1.45-7.33-1.24-11.35,0a15.21,15.21,0,0,0-7.23,4.49,12,12,0,0,0-2.45,10.73l19.61-2.42a21.7,21.7,0,0,0,5.84,4,4.08,4.08,0,0,0,2,.37,1.83,1.83,0,0,0,1.55-1.22A3.87,3.87,0,0,0,411.8,148.31Z" style="fill:#263238"></path><path d="M409.39,143.9l-17-4c-5.42-.49-8.91,6.24-9.17,11.69-.27,6-.38,13.43.41,17.93,1.59,9,8.56,10.07,8.56,10.07s.09,2.27.2,5.08a10.25,10.25,0,0,0,10.68,9.82h0a10.24,10.24,0,0,0,9.8-10.4l-.59-37A3.18,3.18,0,0,0,409.39,143.9Z" style="fill:#ffbe9d"></path><path d="M392.2,179.6a23.07,23.07,0,0,0,12.08-3.44s-2.95,6.33-12,5.63Z" style="fill:#eb996e"></path><path d="M396.49,151.57c.13.33,1.38.15,2.85.3s2.66.54,2.85.23c.09-.15-.13-.47-.61-.79a5,5,0,0,0-4.34-.4C396.7,151.13,396.44,151.4,396.49,151.57Z" style="fill:#263238"></path><path d="M385.48,150.22c.23.28,1.09,0,2.12-.06s1.92.16,2.11-.14,0-.43-.44-.69a3.06,3.06,0,0,0-3.41.16C385.5,149.79,385.39,150.08,385.48,150.22Z" style="fill:#263238"></path><path d="M415,145.74c-1.65-5.23-9.22-12.48-14.7-12.11l-8.76,5.22a8.43,8.43,0,0,0,5.72,6.47c1.54.48,3.4.61,4.32,1.94s.38,3.34,1.25,4.74c1.21,1.95,4.52,1.86,5.43,4,.39.92.18,2,.59,2.93.55,1.21,3.62,2.76,4.89,2.36s1.28-2.56,1.69-3.7a6,6,0,0,0,.2-4C415.07,151,415.78,148.24,415,145.74Z" style="fill:#263238"></path><path d="M410,162.31c0-.68.74-2.28,1.41-2.4,1.77-.3,5-.21,5.09,4.31.14,6.17-6.09,5-6.11,4.87S410,164.64,410,162.31Z" style="fill:#ffbe9d"></path><path d="M412.21,166.7s.11.07.29.15a1.06,1.06,0,0,0,.81,0,2.66,2.66,0,0,0,1.17-2.42,3.58,3.58,0,0,0-.34-1.53,1.21,1.21,0,0,0-.82-.81.56.56,0,0,0-.63.31c-.08.18,0,.3-.07.31s-.14-.1-.09-.35a.67.67,0,0,1,.23-.4.83.83,0,0,1,.59-.17,1.51,1.51,0,0,1,1.15.93,3.56,3.56,0,0,1,.41,1.72,2.79,2.79,0,0,1-1.51,2.7,1.15,1.15,0,0,1-1-.14C412.22,166.85,412.19,166.71,412.21,166.7Z" style="fill:#eb996e"></path><path d="M420.41,154.08a5.28,5.28,0,0,0,.28-1.85,13.71,13.71,0,0,0-2.66-8.49,5.75,5.75,0,0,0-1.27-1.36,20.56,20.56,0,0,1,2.92,5.51A19.92,19.92,0,0,1,420.41,154.08Z" style="fill:#F68A1E"></path><path d="M385,155.06c.12.16,1-.43,2.21-.34s2,.79,2.17.64,0-.34-.41-.66a2.94,2.94,0,0,0-1.72-.71,2.88,2.88,0,0,0-1.78.46C385.1,154.72,385,155,385,155.06Z" style="fill:#263238"></path><path d="M396.85,155.65c.14.15,1-.53,2.28-.55s2.19.58,2.33.42-.09-.34-.5-.62a3.17,3.17,0,0,0-1.87-.53,3,3,0,0,0-1.81.63C396.9,155.3,396.77,155.58,396.85,155.65Z" style="fill:#263238"></path><path d="M392.86,164.23a8.72,8.72,0,0,0-2.06-.28c-.33,0-.63-.07-.7-.29a1.68,1.68,0,0,1,.17-1l.85-2.49a43.36,43.36,0,0,0,1.85-6.49,40.47,40.47,0,0,0-2.37,6.33c-.28.87-.55,1.7-.8,2.5a1.81,1.81,0,0,0-.11,1.27.8.8,0,0,0,.55.45,2.13,2.13,0,0,0,.54,0A8.53,8.53,0,0,0,392.86,164.23Z" style="fill:#263238"></path><path d="M392.45,168.17a6.21,6.21,0,0,0,.86,1.5,2,2,0,0,0,1.49.77,1.84,1.84,0,0,0,1.51-.92,2.94,2.94,0,0,0,.35-1.78c-.05-.55-.34-1.2-.89-1.24a1.32,1.32,0,0,0-.67.18L392.26,168" style="fill:#eb996e"></path><path d="M393.72,170.5a4.14,4.14,0,0,0,1.54-.26,2.26,2.26,0,0,0,1.12-1.12,2.34,2.34,0,0,0-.05-1.9,1.78,1.78,0,0,0-.27-.42c-.12-.12-.1-.11-.23-.09s-.3.14-.45.21l-.47.21c-.61.28-1.16.53-1.63.73a5.42,5.42,0,0,1-1.55.55c0-.07.5-.4,1.39-.88l1.58-.83.46-.23a4.33,4.33,0,0,1,.52-.24.62.62,0,0,1,.43,0,.66.66,0,0,1,.33.24,2.58,2.58,0,0,1,.37,2.86,2.5,2.5,0,0,1-1.41,1.26,2.4,2.4,0,0,1-1.26.1C393.85,170.62,393.71,170.53,393.72,170.5Z" style="fill:#263238"></path><path d="M385.42,159a1.14,1.14,0,0,0,1.56.41,1.13,1.13,0,1,0-1.56-.41Z" style="fill:#263238"></path><path d="M396.9,159.47a1.14,1.14,0,0,0,1.56.41,1.13,1.13,0,1,0-1.56-.41Z" style="fill:#263238"></path><path d="M416,167a2.17,2.17,0,0,0,.19-.23c.12-.16.3-.39.51-.7a24,24,0,0,0,1.63-2.71,23.55,23.55,0,0,0,1.72-4.37,18.58,18.58,0,0,0,.67-5.71,18.81,18.81,0,0,0-1.2-5.63,22.6,22.6,0,0,0-2.09-4.21,23.06,23.06,0,0,0-1.85-2.56c-.24-.29-.44-.5-.57-.65a1.43,1.43,0,0,0-.21-.22l.18.25c.12.15.31.37.53.67a27.54,27.54,0,0,1,1.79,2.59,23.87,23.87,0,0,1,2,4.2,19.44,19.44,0,0,1,1.17,5.57,18.8,18.8,0,0,1-.65,5.64,23.15,23.15,0,0,1-1.67,4.36,29.06,29.06,0,0,1-1.56,2.74l-.47.71A1.76,1.76,0,0,0,416,167Z" style="fill:#455a64"></path><path d="M419.07,144.74a4.33,4.33,0,0,1,1.56.1,5.38,5.38,0,0,1,1.65.8,9.52,9.52,0,0,1,1.79,1.64,38.52,38.52,0,0,1,3.64,5.25c1.23,2.06,2.46,4.41,3.9,6.8a32.91,32.91,0,0,0,4.69,6.29,17.65,17.65,0,0,0,5.21,3.71,12.76,12.76,0,0,0,4.17,1.15,8.68,8.68,0,0,0,1.58,0h-.41a10.29,10.29,0,0,1-1.17-.08,13.17,13.17,0,0,1-4.1-1.19,17.55,17.55,0,0,1-5.13-3.72,33.42,33.42,0,0,1-4.66-6.26c-1.43-2.38-2.67-4.73-3.91-6.79a37,37,0,0,0-3.69-5.25,10,10,0,0,0-1.84-1.64,5.36,5.36,0,0,0-1.7-.78,3.76,3.76,0,0,0-1.18-.09l-.3.05Z" style="fill:#455a64"></path><path d="M421.22,156.55s0,0,0,.1l.09.29c.09.27.21.63.36,1.1.32,1,.8,2.32,1.43,4s1.43,3.66,2.44,5.81a47.52,47.52,0,0,0,3.83,6.7,32.75,32.75,0,0,0,5.11,5.79,26.2,26.2,0,0,0,5.17,3.6,21.57,21.57,0,0,0,3.94,1.59c.48.15.86.22,1.12.28l.29.06.11,0-.1,0-.29-.08c-.25-.08-.63-.15-1.11-.32a22.46,22.46,0,0,1-3.89-1.65,26,26,0,0,1-5.11-3.61,34.37,34.37,0,0,1-5.07-5.76,49.21,49.21,0,0,1-3.82-6.67c-1-2.13-1.83-4.11-2.48-5.78s-1.14-3-1.49-4l-.4-1.09-.11-.28Z" style="fill:#455a64"></path><path d="M293.57,206.6l-6.23,5.05s.26,2.44,1.89,1.35,5.23-2.95,6.68-3.06,4,1.22,5.9,0,1.57-2.13,3.27-2.88,2.18-.46,2.18-.46l.33-6.61-14.68-2.29-5.29-.32a2.42,2.42,0,0,0-2.5,1.77h0s2.85-1.14,4.67.26,4.67,4.53,4.23,5.86Z" style="fill:#ffbe9d"></path><path d="M368.21,222.8h-32l-6.89-2.65-2.31.78,5.23,3.23-2,4.21-3.78,1.7s-.78,1.24,1.15,1.44,6-.91,6-.91l8.1-1.77L367,235.07Z" style="fill:#ffbe9d"></path><path d="M371.75,203c-.17.87-9.84,46.32-7.23,48.1s9.64-2,18.28,1.78,27.34,9.08,29.75,6.71c2-2,6.73-32.38,8.33-43a70.9,70.9,0,0,0,.7-7.12l.49-10a13.56,13.56,0,0,0-2.92-9.26c-3.77-4.8-12.69-8-17.84-9.06C394.88,179.8,377.38,174.23,371.75,203Z" style="fill:#F68A1E"></path><g style="opacity:0.30000000000000004"><path d="M388.32,212a9.54,9.54,0,0,1-7-.06,9.31,9.31,0,0,1-5.5-9.86l-4.09.47c.51,5.49,4.46,11,9.86,12.14s11.07-2.31,13.74-7.14A23.58,23.58,0,0,1,388.32,212Z"></path></g><path d="M375.83,199.79c-.27,3.2.35,8.9,2.73,10.6A11.21,11.21,0,0,0,387,212a15.82,15.82,0,0,0-.65-31.29s-7.31,4.48-9.9,10.7S375.83,199.79,375.83,199.79Z" style="fill:#ffbe9d"></path><path d="M368.68,222s6-3,18.9-1.4l-1.05,6.55s-14.07-1.38-19.17,2.17Z" style="fill:#fff"></path><path d="M391.51,221l-.81,6.89s14.88,3.59,19.51,6.13l1.3-6.85S398.36,220.57,391.51,221Z" style="fill:#fff"></path><path d="M366.69,233.43s6-3,18.89-1.4l-.79,6.82s-14-1.23-19.42,1.9Z" style="fill:#fff"></path><path d="M389.68,233.06l-1,6.2s14.89,3.59,19.52,6.13l1.3-6.85S396.53,232.67,389.68,233.06Z" style="fill:#fff"></path><path d="M384.77,253.79a9.6,9.6,0,0,1,.19-1.71c.17-1.19.4-2.75.68-4.65.57-4,1.34-9.38,2.2-15.33s1.68-11.41,2.37-15.31c.34-2,.65-3.53.88-4.62a12.21,12.21,0,0,1,.42-1.67,9.63,9.63,0,0,1-.22,1.71c-.19,1.18-.43,2.74-.72,4.63l-2.22,15.33c-.86,6-1.68,11.41-2.35,15.32-.33,1.95-.62,3.53-.84,4.62A11.94,11.94,0,0,1,384.77,253.79Z" style="fill:#263238"></path><path d="M307.59,200s36.8-5.22,37.39-5.06,27.21-8.45,31.12-10.61,10-6.06,14.52-1.56,3.88,12.33,1.14,15.07-18.4,4.31-18.4,4.31-17.81,3.91-23.68,4.3-42.42.16-42.42.16Z" style="fill:#ffbe9d"></path><path d="M387.62,200.51a90.39,90.39,0,0,1-9.81,1.54,96.27,96.27,0,0,1-9.88,1,90.92,90.92,0,0,1,9.81-1.54A96.27,96.27,0,0,1,387.62,200.51Z" style="fill:#eb996e"></path><path d="M397.35,192.93c-.09,0,0-.8-.18-2a11,11,0,0,0-5-7.95c-1.05-.67-1.8-.95-1.77-1a4.84,4.84,0,0,1,2,.72,10.07,10.07,0,0,1,5.19,8.23A4.63,4.63,0,0,1,397.35,192.93Z" style="fill:#eb996e"></path><path d="M377.78,201.8s1.61,6.71,6.79,8,8.52-.46,8.52-.46-7.83,5.8-13.53,2.18c-5.34-3.39-3.77-9.52-3.77-9.52Z" style="fill:#455a64"></path><path d="M411.72,247.53c-.14,0,.6-4.72,1.66-10.49s2-10.42,2.16-10.39-.6,4.72-1.65,10.48A103.53,103.53,0,0,1,411.72,247.53Z" style="fill:#263238"></path><path d="M381.65,216.53a2.58,2.58,0,0,1,0-2.4c.53-1.31,1.61-1.86,1.66-1.73s-.72.78-1.18,1.93A19.92,19.92,0,0,0,381.65,216.53Z" style="fill:#263238"></path><path d="M384.77,216.38c-.1.1-.74-.62-.73-1.74s.65-1.83.75-1.73-.24.8-.23,1.73S384.9,216.3,384.77,216.38Z" style="fill:#263238"></path><path d="M404.91,195a14.35,14.35,0,0,0-2.5-.18,13.84,13.84,0,0,0-2.39.75,3.58,3.58,0,0,1,4.89-.57Z" style="fill:#263238"></path><path d="M402.88,191.67c0,.15-.92.05-1.87.49s-1.48,1.14-1.61,1.06.27-1,1.4-1.54S402.94,191.54,402.88,191.67Z" style="fill:#263238"></path><path d="M412.77,259.28c-1.37,3.1-21.4-2.57-30-6.33s-15.67,0-18.28-1.78a1.72,1.72,0,0,1,1-2.76c2.3-.76,14.13-.55,18.13,2.11s13.51,5.27,17.81,6S414.05,256.39,412.77,259.28Z" style="opacity:0.30000000000000004"></path><path d="M404.85,255.3a3.08,3.08,0,0,1-.91,2.31c-.9,1.11-2.05,1.48-2.09,1.35s.87-.67,1.69-1.68S404.7,255.26,404.85,255.3Z" style="fill:#263238"></path><path d="M369,251.54c-.06.13-1.09-.49-1.55-1.82a2.59,2.59,0,0,1,.07-2.4c.15,0,0,1.06.42,2.22S369.13,251.43,369,251.54Z" style="fill:#263238"></path><polygon points="418.63 230.94 416.62 230.05 415.54 235.78 417.64 236.86 418.63 230.94" style="fill:#fff"></polygon><polygon points="416.77 241.81 414.76 240.92 413.68 246.65 415.78 247.73 416.77 241.81" style="fill:#fff"></polygon><path d="M421.1,208.79A25.92,25.92,0,0,1,418,207.5c-1.9-.83-4.54-1.95-7.5-3.06s-5.69-2-7.68-2.62a25.11,25.11,0,0,1-3.19-1.06,3.14,3.14,0,0,1,.9.13c.57.12,1.39.31,2.4.58,2,.53,4.77,1.37,7.75,2.49s5.61,2.29,7.48,3.21c.93.46,1.68.85,2.19,1.13A3.34,3.34,0,0,1,421.1,208.79Z" style="fill:#263238"></path></g><g id="freepik--Sea--inject-21"><path d="M642.76,385.91l-30.57,3.17c-81.72,2-226.67-11.52-303.53-39.36-47.67-17.26-93.16-40-139.93-59.51s-100-42-149.28-21.67c0,0,.68,12.49,15.29,10s37.32-11.8,49.23-8.49,26,16.35,41.11,17.41,24.89,5,24.89,5,14.6,16.05,29.21,17.93,24.34,3,24.34,3,2.74,1.62,21.12,16.23,39.47,12.44,51.37,15.14,30.93,5.26,39.81,11.29,61.8,28.75,80.79,29.29,46.5-7.33,61.14,3.91S503.92,413,522,409.71s34.42-17.85,44.09-13.52,33.08,13.52,40.85,7.57S646.32,394.56,642.76,385.91ZM33.83,273.47a2.08,2.08,0,1,1,2.08-2.08A2.08,2.08,0,0,1,33.83,273.47Zm8.1-2.36a1,1,0,1,1,0-2.08,1,1,0,0,1,0,2.08Zm129.91,31.52a2.08,2.08,0,1,1,2.08-2.08A2.08,2.08,0,0,1,171.84,302.63Zm6.69,2.09a1,1,0,1,1,1-1.05A1,1,0,0,1,178.53,304.72Zm63.34,31.34A2.09,2.09,0,1,1,244,334,2.09,2.09,0,0,1,241.87,336.06Zm7.95-3.45a1,1,0,1,1,0-2.08,1,1,0,0,1,0,2.08Zm4.66,6.64a2.64,2.64,0,1,1,2.64-2.64A2.64,2.64,0,0,1,254.48,339.25ZM389.74,382c-3.12,0-5.65-1.62-5.65-3.63s2.53-3.62,5.65-3.62,5.64,1.62,5.64,3.62S392.85,382,389.74,382Zm11.18-3.07a1.21,1.21,0,0,1-2.16-1.11,1.21,1.21,0,1,1,2.16,1.11Zm92.8,20.73a1.22,1.22,0,1,1-.53-1.64A1.22,1.22,0,0,1,493.72,399.64Zm12,5.93c-3.11,0-5.64-1.63-5.64-3.63s2.53-3.63,5.64-3.63,5.64,1.63,5.64,3.63S508.89,405.57,505.77,405.57Zm11,2a1.21,1.21,0,0,1-1.63.53,1.22,1.22,0,0,1-.53-1.64,1.21,1.21,0,0,1,2.16,1.11Zm5.24-6.44a2.08,2.08,0,1,1,2.08-2.08A2.08,2.08,0,0,1,522,401.16Zm70.69-1.52a1.22,1.22,0,1,1-.52-1.64A1.21,1.21,0,0,1,592.69,399.64Zm5.87,3.14a2.09,2.09,0,1,1,2.08-2.08A2.09,2.09,0,0,1,598.56,402.78Z" style="fill:#e0e0e0"></path><path d="M703.85,380.12l-1.6.05-2,.05-2.72.16c-4.13.25-10.22.74-18.1,1.5-15.75,1.5-38.64,4-67.24,7.37h0c-15.93.35-33.73.18-53.07-.51s-40.21-2.08-62.3-4L480,383.19l-17.2-1.88-4.37-.48-4.38-.55-8.84-1.12c-3-.38-5.94-.73-8.93-1.15l-9-1.3c-24.13-3.52-49.13-7.85-74.43-13.89L344,360.64c-1.47-.37-2.95-.7-4.4-1.11l-4.36-1.24c-5.79-1.67-11.58-3.18-17.19-5.17l-8.43-2.8c-2.79-1-5.53-2-8.28-3-5.47-2.06-10.89-4.15-16.22-6.29-21.36-8.56-41.64-17.59-60.93-26.22s-37.63-16.85-55-24.12-33.52-14-48.7-19a218.42,218.42,0,0,0-41.87-9.94,129,129,0,0,0-32.45-.17,105.27,105.27,0,0,0-20,4.53c-2.25.69-3.91,1.38-5,1.8l-1.71.63s.57-.24,1.69-.68,2.78-1.14,5-1.85a103.87,103.87,0,0,1,20-4.63,127.69,127.69,0,0,1,32.51.09,217,217,0,0,1,42,9.87c15.2,5,31.42,11.66,48.75,18.92s35.69,15.45,55,24.08S264,332,285.33,340.52c5.33,2.15,10.74,4.23,16.21,6.29,2.75,1,5.49,2.07,8.27,3l8.42,2.8c5.6,2,11.39,3.49,17.17,5.16l4.35,1.24c1.45.41,2.93.73,4.4,1.11l8.85,2.17c25.28,6,50.27,10.37,74.38,13.89l9,1.31c3,.42,6,.77,8.92,1.15l8.84,1.13,4.38.55,4.37.48,17.19,1.89,16.78,1.57c22.08,1.92,43,3.27,62.28,4s37.12.9,53,.58h0c28.61-3.34,51.51-5.77,67.28-7.21,7.88-.73,14-1.19,18.11-1.41l2.72-.13,2,0Z" style="fill:#263238"></path><path d="M283.65,390.33l-.5,0-1.45,0-2.35,0-1.51,0c-.53,0-1.1,0-1.71-.06l-4-.19c-1.47-.11-3.06-.29-4.77-.45-3.42-.39-7.29-1-11.53-1.88a179.19,179.19,0,0,1-29-9c-10.65-4.19-22-9.53-33.94-15.22S169.58,352.59,159,348.33a187.67,187.67,0,0,0-28.86-9.25,121.67,121.67,0,0,0-20.22-2.89c-.61,0-1.17-.09-1.71-.11l-1.5,0-2.35-.05-1.45,0c-.33,0-.49,0-.49,0l.49,0h5.31c.53,0,1.1.06,1.71.09a116.22,116.22,0,0,1,20.29,2.73,184.22,184.22,0,0,1,29,9.17c10.64,4.24,22,9.6,33.92,15.3s23.28,11,33.9,15.25a182.43,182.43,0,0,0,28.92,9.06c4.22.91,8.08,1.53,11.48,1.95,1.71.17,3.29.37,4.76.5l4,.22c.6,0,1.17.08,1.71.1h3.85l1.45,0Z" style="fill:#263238"></path><path d="M530.25,434.46a2.78,2.78,0,0,1-.26.32l-.8.91a14,14,0,0,1-3.81,2.68,19.12,19.12,0,0,1-7.15,1.79,31.69,31.69,0,0,1-9.71-1,64.56,64.56,0,0,1-11-4.33A81.76,81.76,0,0,0,485,429.74a27.93,27.93,0,0,0-7.18-1.06,32.41,32.41,0,0,0-7.52.87c-5.06,1.13-10.08,3.15-15.47,4.44a32.59,32.59,0,0,1-16.06.05,67,67,0,0,1-14-5.42c-4.29-2.13-8.27-4.32-12.1-6.14a61.44,61.44,0,0,0-11-4.07,37.45,37.45,0,0,0-9.6-1.31,25.9,25.9,0,0,0-7.23,1,18.56,18.56,0,0,0-2.51.94,13,13,0,0,0-1.75.86l-1.05.61-.37.19a2.43,2.43,0,0,1,.34-.24l1-.65a13,13,0,0,1,1.75-.92,19.12,19.12,0,0,1,2.51-1,25.51,25.51,0,0,1,7.29-1.12,37.41,37.41,0,0,1,9.69,1.24,61.68,61.68,0,0,1,11.13,4c3.86,1.81,7.85,4,12.13,6.1a67.29,67.29,0,0,0,13.91,5.36,34.84,34.84,0,0,0,7.8,1,34,34,0,0,0,8-1c5.34-1.27,10.36-3.29,15.47-4.42a32.32,32.32,0,0,1,7.65-.88,28.75,28.75,0,0,1,7.3,1.1,81.59,81.59,0,0,1,12.59,5.12,64.61,64.61,0,0,0,10.94,4.36,31.48,31.48,0,0,0,9.6,1.11,19.13,19.13,0,0,0,7.07-1.68,14.86,14.86,0,0,0,3.83-2.57l.83-.88A2.53,2.53,0,0,1,530.25,434.46Z" style="fill:#263238"></path><path d="M610.05,431.77c0,.1-1.72-.47-4.54-1a39.47,39.47,0,0,0-5-.53,41.92,41.92,0,0,0-6.12.25,41.37,41.37,0,0,0-6,1.23,38.32,38.32,0,0,0-4.71,1.71c-2.61,1.15-4.12,2.11-4.17,2a5.84,5.84,0,0,1,1-.73,14.48,14.48,0,0,1,1.26-.75c.5-.27,1.07-.6,1.73-.89a34.56,34.56,0,0,1,4.73-1.83,38.9,38.9,0,0,1,6.08-1.29,37.75,37.75,0,0,1,6.2-.21,33.84,33.84,0,0,1,5,.65c.71.12,1.34.31,1.9.45a14.23,14.23,0,0,1,1.4.43A6.15,6.15,0,0,1,610.05,431.77Z" style="fill:#263238"></path></g></svg>